<?xml version="1.0" encoding="utf-8"?>
<!-- Generator: Adobe Illustrator 16.0.3, SVG Export Plug-In . SVG Version: 6.00 Build 0)  -->
<!DOCTYPE svg PUBLIC "-//W3C//DTD SVG 1.1//EN" "http://www.w3.org/Graphics/SVG/1.1/DTD/svg11.dtd">
<svg version="1.1" id="Layer_1" xmlns="http://www.w3.org/2000/svg" xmlns:xlink="http://www.w3.org/1999/xlink" x="0px" y="0px"
	 width="182.505px" height="80.95px" viewBox="0 0 182.505 80.95" enable-background="new 0 0 182.505 80.95" xml:space="preserve">
<g>
	<path d="M63.463,19.279c4.726,10.494,3.219,24.526-3.867,33.453C51.265,63.547,38.02,68.208,24.77,64.989
		C13.355,62.504,2.599,51.481,0.631,39.874c-2.557-13.45,2.757-26.435,14.038-34.106C23.85-1.12,38.609-1.838,48.645,3.606
		C54.873,6.686,60.78,12.982,63.463,19.279z"/>
	<path fill="#FFFFFF" d="M61.758,18.034c5.643,10.1,4.269,24.791-2.754,33.839c-7.867,10.367-20.46,15.086-32.988,12.332
		C15.391,62.241,5.357,52.991,2.405,42.563c-3.608-11.805-0.065-24.465,8.986-32.862c5.315-4.721,11.215-7.738,18.165-8.524
		C43.003-0.465,55.464,6.226,61.758,18.034z"/>
	<path fill="#030303" d="M59.003,20.458c5.122,10.17,2.893,23.283-4.721,31.613c-7.544,8.066-18.954,11.413-29.709,8.066
		C15.914,57.846,7.715,49.51,5.613,40.855C2.6,30.034,6.273,18.817,14.601,11.54c7.608-6.759,19.417-8.921,29.125-5.117
		C50.151,8.851,55.86,14.225,59.003,20.458z"/>
	<path fill="#FFFFFF" d="M57.562,20c5.246,9.314,3.609,22.499-3.281,30.5c-7.145,8.199-17.842,11.607-28.528,8.914
		C16.505,57.317,7.979,48.402,6.273,39.087C3.91,28.202,8.046,17.902,16.637,11.147c7.674-6.104,20.199-7.414,28.859-2.823
		C50.413,10.686,55.073,15.146,57.562,20z"/>
	<path d="M55.464,21.965c3.54,6.89,3.087,16.858-0.979,23.352C49.3,53.978,40.18,58.304,30.346,57.448
		c-9.116-0.852-18.435-8.129-20.792-17.181C6.666,30.229,10.015,20,18.207,13.503c6.956-5.577,18.232-6.752,26.236-2.555
		C48.975,13.182,53.233,17.373,55.464,21.965z"/>
	<path fill="#FFFFFF" d="M54.088,21.64c4.131,7.022,3.475,17.577-1.112,24.138c-4.858,7.41-13.056,11.346-21.716,10.754
		c-8.132-0.523-15.672-5.771-19.413-13.119c-3.801-7.281-2.822-17.839,2.293-24.268c6.168-8.127,16.205-11.342,25.777-8.853
		C45.624,11.87,51.205,16.13,54.088,21.64z"/>
	<path d="M50.937,23.084c3.937,6.554,3.083,16.264-1.708,22.167c-5.045,6.295-13.05,9.311-21.18,7.34
		c-6.82-1.701-13.119-7.733-14.562-14.688c-1.773-7.802,0.854-15.476,6.952-20.529c5.643-4.783,14.757-5.899,21.515-2.684
		C45.559,16.26,49.105,19.541,50.937,23.084z"/>
	<path fill="#FFFFFF" d="M50.611,24.655c3.018,5.903,2.163,14.236-1.772,19.41c-4.917,6.695-13.116,9.449-20.926,7.417
		C21.947,49.974,16.178,44.4,14.667,38.43c-2.035-7.345,0.261-14.69,5.771-19.677c5.249-5.113,14.231-6.294,20.854-3.275
		C45.164,17.179,48.839,20.784,50.611,24.655z"/>
	<path fill="#050505" d="M47.331,26.489c2.036,4.333,1.707,10.563-0.916,14.497c-3.347,5.113-8.791,7.876-14.757,7.285
		c-5.905-0.397-11.348-4.856-13.12-10.432c-1.771-5.438-0.331-11.542,3.671-15.542c4.134-4.329,10.691-5.842,16.464-3.805
		C42.214,19.736,45.82,23.018,47.331,26.489z"/>
	<path fill="#FFFFFF" d="M43.132,27.017c2.427,3.74,2.032,9.115-0.524,12.659c-2.816,3.737-7.019,5.31-11.672,4.659
		c-4.07-0.726-8.138-4.459-8.922-8.588c-0.985-4.4,0.463-8.729,3.933-11.613c3.018-2.562,7.68-3.412,11.48-1.969
		C39.591,23.146,41.889,24.789,43.132,27.017z"/>
	<path d="M42.675,28.066c1.899,3.74,1.375,8.53-1.312,11.676c-2.819,3.084-6.89,4.592-10.953,3.477
		c-3.543-0.986-6.823-4.268-7.544-7.872c-0.722-3.868,0.392-7.801,3.606-10.428c2.888-2.622,7.806-3.279,11.347-1.576
		C39.792,24.392,41.689,26.103,42.675,28.066z"/>
	<path fill="#FFFFFF" d="M40.313,28.661c1.375,2.097,1.443,5.112,0.593,7.473c-1.113,2.495-3.545,4.458-6.167,4.917
		c-3.018,0.525-5.905-0.459-7.87-2.815c-2.098-2.364-2.425-6.295-0.918-9.12c1.774-3.082,5.113-4.853,8.791-4.262
		C36.969,25.311,39.134,26.627,40.313,28.661z"/>
	<path d="M39.792,29.574c1.048,1.969,0.979,4.856-0.068,6.756c-1.18,2.035-3.216,3.542-5.445,3.872
		c-2.888,0.266-5.639-0.723-7.278-3.281c-1.514-2.363-1.313-5.904,0.26-8.134c1.642-2.493,4.524-3.279,7.479-2.952
		C36.769,26.23,38.872,27.672,39.792,29.574z"/>
	<path fill="#FFFFFF" d="M36.441,30.689c0.197,0.529,0.139,1.051-0.058,1.508c-0.268,0.464-0.792,0.592-1.25,0.721
		c-0.59,0-1.181-0.258-1.44-0.849c-0.194-0.529-0.134-1.049,0.126-1.513c0.266-0.458,0.725-0.523,1.184-0.721
		C35.59,29.774,36.179,30.166,36.441,30.689z"/>
	<path fill="#FFFFFF" d="M32.51,30.298c0.326,0.459,0.59,1.113,0.392,1.702c-0.263,0.457-0.59,0.66-1.048,0.854
		c-0.593,0.064-1.113,0-1.508-0.398c-0.457-0.387-0.457-1.044-0.263-1.635c0.131-0.398,0.59-0.722,0.979-0.85
		C31.593,29.972,32.115,29.972,32.51,30.298z"/>
	<path fill="#FFFFFF" d="M31.72,33.968c0.261,0.786-0.063,1.577-0.783,1.971c-0.592,0.129-1.384,0.263-1.708-0.395
		c-0.397-0.397-0.524-0.984-0.329-1.442c0.329-0.394,0.589-0.853,1.116-0.989C30.807,32.92,31.326,33.447,31.72,33.968z"/>
	<path fill="#FFFFFF" d="M37.058,33.816c0.395,0.458,0.524,1.243,0.26,1.772c-0.326,0.591-0.979,0.721-1.575,0.785
		c-0.589,0.134-0.195,1.052-0.656,1.441c-0.458,0.657-1.243,0.527-1.896,0.395c-0.595-0.395-0.986-1.174-0.726-1.968
		c0.131-0.391,0.657-0.719,1.047-0.852h0.855c0.131-0.458,0-1.114,0.396-1.506C35.283,33.225,36.535,33.225,37.058,33.816z"/>
</g>
<g>
	<path fill="#E2231A" stroke="#000000" stroke-width="0.8732" d="M81.783,30.648V1.482h9.731v4.181H86.98v6.675h4.352v4.178H86.98
		V30.65h-5.196V30.648z"/>
	<path fill="#E2231A" stroke="#000000" stroke-width="0.8732" d="M92.732,6.234c0-3.893,2.913-5.324,6.12-5.324
		c3.205,0,6.116,1.431,6.116,5.324v19.661c0,3.892-2.912,5.324-6.116,5.324c-3.207,0-6.12-1.432-6.12-5.324V6.234z M99.774,7.174
		c0-0.817-0.111-1.925-0.922-1.925c-0.813,0-0.923,1.108-0.923,1.925V24.95c0,0.821,0.112,1.928,0.923,1.928
		c0.813,0,0.922-1.106,0.922-1.928V7.174z"/>
	<path fill="#E2231A" stroke="#000000" stroke-width="0.8732" d="M106.556,30.648V1.482h6.119c3.208,0,6.118,1.436,6.118,5.897V9.96
		c0,2.171-0.884,4.547-4.02,4.754v0.081c3.281,0.205,4.02,1.596,4.02,4.917v5.772c0,2.829,0.479,4.02,0.774,5.165h-5.27
		c-0.369-0.818-0.7-1.761-0.7-3.769v-6.636c0-1.804,0-3.238-1.843-3.238v13.643L106.556,30.648L106.556,30.648z M111.753,13.648
		h0.625c0.849,0,1.216-0.451,1.216-1.843V7.502c0-1.394-0.369-1.842-1.216-1.842h-0.625V13.648z"/>
	<path fill="#E2231A" stroke="#000000" stroke-width="0.8732" d="M127.349,11.885v-4.71c0-0.817-0.113-1.925-0.924-1.925
		c-0.813,0-0.924,1.108-0.924,1.925c0.147,8.152,7.229,5.445,7.229,16.183v2.538c0,3.892-2.913,5.324-6.123,5.324
		c-3.205,0-6.119-1.432-6.119-5.324v-6.718h5.199v5.774c0,0.82,0.111,1.928,0.92,1.928c0.813,0,0.923-1.106,0.923-1.928
		c-0.111-9.376-7.225-8.352-7.225-15.073V6.234c0-3.893,2.909-5.324,6.118-5.324c3.208,0,6.121,1.431,6.121,5.324v5.652
		L127.349,11.885L127.349,11.885z"/>
	<path fill="#E2231A" stroke="#000000" stroke-width="0.8732" d="M142.239,30.648h-5.195V5.662h-3.505v-4.18h12.203v4.181h-3.505
		L142.239,30.648L142.239,30.648z"/>
	<path fill="#E2231A" stroke="#000000" stroke-width="0.8732" d="M146.811,30.648V1.482h9.735v4.181h-4.537v6.675h4.352v4.178
		h-4.352v9.956h4.537v4.178h-9.735V30.648z"/>
	<path fill="#E2231A" stroke="#000000" stroke-width="0.8732" d="M157.757,30.648V1.482h6.122c3.207,0,6.121,1.436,6.121,5.897V9.96
		c0,2.171-0.887,4.547-4.021,4.754v0.081C169.258,15,170,16.391,170,19.711v5.772c0,2.829,0.478,4.02,0.771,5.165H165.5
		c-0.368-0.818-0.698-1.761-0.698-3.769v-6.636c0-1.804,0-3.238-1.842-3.238v13.643H157.757L157.757,30.648z M162.96,13.648h0.625
		c0.849,0,1.218-0.451,1.218-1.843V7.502c0-1.394-0.368-1.842-1.218-1.842h-0.625V13.648z"/>
</g>
<g>
	<path fill="#E2231A" stroke="#000000" stroke-width="0.8732" d="M72.781,64.252V35.086h6.124c3.204,0,6.118,1.434,6.118,5.9v5.979
		c0,4.464-2.914,5.898-6.118,5.898H77.98V64.25h-5.199V64.252z M77.979,48.688h0.625c0.853,0,1.218-0.453,1.218-1.846v-5.733
		c0-1.39-0.365-1.842-1.218-1.842h-0.625V48.688z"/>
	<path fill="#E2231A" stroke="#000000" stroke-width="0.8732" d="M86.604,64.252V35.086h6.121c3.211,0,6.12,1.434,6.12,5.9v2.581
		c0,2.167-0.885,4.546-4.019,4.751V48.4c3.28,0.204,4.019,1.595,4.019,4.917v5.775c0,2.826,0.48,4.017,0.776,5.162h-5.272
		c-0.369-0.817-0.697-1.762-0.697-3.771V53.85c0-1.803,0-3.234-1.848-3.234v13.639L86.604,64.252L86.604,64.252z M91.802,47.252
		h0.625c0.853,0,1.223-0.451,1.223-1.844v-4.301c0-1.391-0.367-1.842-1.223-1.842h-0.625V47.252z"/>
	<path fill="#E2231A" stroke="#000000" stroke-width="0.8732" d="M100.428,39.838c0-3.893,2.914-5.324,6.118-5.324
		c3.214,0,6.126,1.431,6.126,5.324v19.66c0,3.894-2.912,5.326-6.126,5.326c-3.205,0-6.118-1.432-6.118-5.326V39.838z
		 M107.474,40.779c0-0.817-0.113-1.926-0.925-1.926c-0.809,0-0.92,1.108-0.92,1.926v17.777c0,0.819,0.112,1.925,0.92,1.925
		c0.813,0,0.925-1.105,0.925-1.925V40.779z"/>
	<path fill="#E2231A" stroke="#000000" stroke-width="0.8732" d="M114.255,35.086h6.12c3.204,0,6.122,1.434,6.122,5.327v18.512
		c0,3.896-2.918,5.328-6.122,5.328h-6.12V35.086z M119.452,60.073h0.922c0.81,0,0.92-1.107,0.92-1.926V41.188
		c0-0.818-0.112-1.924-0.92-1.924h-0.922V60.073z"/>
	<path fill="#E2231A" stroke="#000000" stroke-width="0.8732" d="M140.315,59.499c0,3.895-2.913,5.326-6.118,5.326
		c-3.206,0-6.118-1.432-6.118-5.326V35.086h5.195v23.47c0,0.819,0.112,1.925,0.923,1.925c0.813,0,0.921-1.105,0.921-1.925v-23.47
		h5.197V59.499z"/>
	<path fill="#E2231A" stroke="#000000" stroke-width="0.8732" d="M154.139,52.782v6.717c0,3.894-2.907,5.326-6.117,5.326
		c-3.206,0-6.12-1.432-6.12-5.326v-19.66c0-3.893,2.914-5.324,6.12-5.324c3.21,0,6.117,1.431,6.117,5.324v5.531h-5.195v-4.591
		c0-0.817-0.111-1.926-0.922-1.926c-0.81,0-0.917,1.108-0.917,1.926v17.778c0,0.818,0.109,1.925,0.917,1.925
		c0.813,0,0.922-1.104,0.922-1.925V52.78L154.139,52.782L154.139,52.782z"/>
	<path fill="#E2231A" stroke="#000000" stroke-width="0.8732" d="M163.765,64.252h-5.199V39.266h-3.505v-4.18h12.201v4.18h-3.499
		L163.765,64.252L163.765,64.252z"/>
	<path fill="#E2231A" stroke="#000000" stroke-width="0.8732" d="M175.154,45.493v-4.714c0-0.817-0.109-1.926-0.921-1.926
		s-0.918,1.108-0.918,1.926c0.146,8.151,7.225,5.448,7.225,16.181v2.539c0,3.895-2.911,5.326-6.116,5.326
		c-3.214,0-6.123-1.432-6.123-5.326v-6.717h5.198v5.777c0,0.818,0.111,1.925,0.925,1.925c0.812,0,0.92-1.104,0.92-1.925
		c-0.109-9.379-7.224-8.355-7.224-15.073v-3.644c0-3.893,2.908-5.325,6.114-5.325c3.21,0,6.12,1.431,6.12,5.325v5.654
		L175.154,45.493L175.154,45.493z"/>
</g>
<g>
	<path d="M84.621,70.848c-0.305-0.625-0.925-1.165-1.679-1.165c-1.108,0-1.137,0.896-1.137,1.009c0,0.739,0.634,1.039,1.229,1.266
		l1.228,0.483c0.582,0.228,1.268,0.653,1.651,1.222c0.119,0.172,0.542,0.854,0.542,1.834c0,0.469,0,1.859-1.374,2.756
		c-0.568,0.369-1.374,0.526-1.862,0.526c-1.704,0-2.708-0.438-3.58-2.116l1.65-1.18c0.356,0.883,1.005,1.422,1.837,1.422
		c0.462,0,1.294-0.229,1.294-1.18c0-0.782-0.396-0.95-1.85-1.561c-1.466-0.611-2.734-1.309-2.734-3.369
		c0-1.717,1.162-2.955,3.157-2.955c1.426,0,2.43,0.625,3.222,1.875L84.621,70.848z"/>
	<path d="M86.763,70.946h1.043v-2.727h1.836v2.729h1.347v1.451h-1.347v3.907c0,0.241,0,0.638,0.925,0.638
		c0.105,0,0.133,0,0.516-0.043v1.551c-0.753,0.1-0.833,0.112-1.109,0.112c-0.792,0-2.166-0.112-2.166-2.062v-4.106h-1.044V70.946
		L86.763,70.946z"/>
	<path d="M91.93,70.946h1.771v1.708h0.052c0.661-1.649,1.414-1.876,2.087-1.905v2.6c-0.78,0-1.267,0-2.021,0.686v4.444H91.93V70.946
		z"/>
	<path d="M96.173,71.758c0.594-0.498,1.188-0.995,2.682-0.995c0.488,0,1.531,0.129,2.099,0.739c0.528,0.565,0.528,1.137,0.528,1.533
		v3.694c0,0.043,0.052,0.454,0.409,0.466v1.365h-0.542c-0.897,0-1.267-0.598-1.439-0.938h-0.053
		c-0.224,0.311-0.355,0.481-0.646,0.668c-0.093,0.055-0.608,0.383-1.215,0.383c-0.74,0-1.876-0.412-1.876-2.146
		c0-0.696,0.238-1.806,1.505-2.43c0.673-0.327,1.388-0.481,2.008-0.528c0-0.738,0-0.949-0.133-1.15
		c-0.119-0.183-0.409-0.326-0.767-0.326c-0.807,0-1.308,0.469-1.69,0.824L96.173,71.758z M99.621,74.627
		c-0.409,0.086-1.744,0.355-1.744,1.649c0,0.513,0.291,0.923,0.739,0.923c0.846,0,1.005-0.91,1.005-1.404V74.627z"/>
	<path d="M104.603,69.698h-1.823v-1.705h1.823V69.698z M102.779,70.946h1.823v7.531h-1.823V70.946z"/>
	<path d="M107.126,79.002c0.184,0.256,0.489,0.697,1.123,0.697c0.303,0,0.872-0.145,1.083-0.64c0.092-0.228,0.105-0.497,0.105-0.867
		v-1.137h-0.065c-0.397,0.639-0.991,1.079-1.89,1.079c-0.793,0-1.349-0.625-1.532-1.15c-0.145-0.412-0.145-0.966-0.145-1.307v-2.104
		c0-0.723,0-2.885,1.771-2.885c0.699,0,1.056,0.327,1.307,0.557c0.239,0.211,0.397,0.438,0.622,0.881h0.052V70.85h1.745v6.393
		c0,1.436-0.013,3.707-2.919,3.707c-1.586,0-2.233-0.752-2.404-1.207L107.126,79.002z M109.439,73.122
		c-0.159-0.24-0.701-0.482-0.99-0.482c-0.424,0-0.608,0.24-0.688,0.496c-0.091,0.283-0.132,1.051-0.132,1.307
		c0,0.271,0.042,1.335,0.132,1.605c0.133,0.398,0.409,0.539,0.688,0.539c0.515,0,0.831-0.369,0.99-0.539V73.122z"/>
	<path d="M112.729,68.049h1.864v3.056l-0.027,1.022h0.079c0.53-1.01,1.217-1.362,1.941-1.362c0.556,0,1.057,0.239,1.36,0.739
		c0.318,0.512,0.318,1.094,0.318,1.562v5.412h-1.849v-4.845c0-0.455-0.016-1.121-0.634-1.121c-0.436,0-0.674,0.24-1.189,0.738v5.228
		h-1.862V68.049H112.729L112.729,68.049z"/>
	<path d="M118.848,70.946h1.041v-2.727h1.837v2.729h1.351v1.451h-1.351v3.907c0,0.241,0,0.638,0.926,0.638
		c0.105,0,0.133,0,0.516-0.043v1.551c-0.752,0.1-0.832,0.112-1.108,0.112c-0.793,0-2.167-0.112-2.167-2.062v-4.106h-1.041
		L118.848,70.946L118.848,70.946z"/>
	<path d="M130.686,72.752c-0.621-0.457-0.925-0.61-1.36-0.61c-0.437,0-0.715,0.211-0.715,0.582c0,0.411,0.397,0.61,0.939,0.866
		c0.989,0.482,2.139,1.08,2.139,2.686c0,1.918-1.599,2.4-2.379,2.4c-1.266,0-1.979-0.61-2.352-0.938l0.832-1.362
		c0.356,0.398,0.778,0.852,1.479,0.852c0.556,0,0.728-0.398,0.728-0.667c0-0.427-0.277-0.556-0.832-0.841
		c-1.532-0.766-2.195-1.461-2.195-2.641c0-0.754,0.291-1.508,0.99-1.963c0.567-0.367,1.044-0.367,1.414-0.367
		c0.886,0,1.729,0.426,2.101,0.768L130.686,72.752z"/>
	<path d="M132.604,68.049h1.862v3.056l-0.025,1.022h0.08c0.529-1.01,1.215-1.362,1.941-1.362c0.555,0,1.058,0.239,1.362,0.739
		c0.314,0.512,0.314,1.094,0.314,1.562v5.412h-1.849v-4.845c0-0.455-0.014-1.121-0.634-1.121c-0.435,0-0.675,0.24-1.188,0.738v5.228
		h-1.863L132.604,68.049L132.604,68.049z"/>
	<path d="M142.104,70.719c0.781,0,1.782,0.072,2.406,1.15c0.341,0.611,0.433,1.465,0.433,2.813c0,1.549-0.024,2.431-0.752,3.196
		c-0.238,0.24-0.673,0.709-1.915,0.709c-0.423,0-1.161-0.025-1.61-0.297c-1.176-0.713-1.241-1.946-1.241-3.778
		C139.422,73.092,139.422,70.719,142.104,70.719z M141.298,75.209c0,0.271,0.04,0.969,0.091,1.207
		c0.146,0.683,0.675,0.683,0.808,0.683c0.885,0,0.885-0.665,0.885-2.699c0-1.179,0-2.173-0.872-2.173
		c-0.913,0-0.913,0.923-0.913,1.506v1.479h0.002V75.209z"/>
	<path d="M148.922,70.719c0.78,0,1.782,0.072,2.404,1.15c0.343,0.611,0.435,1.465,0.435,2.813c0,1.549-0.026,2.431-0.753,3.196
		c-0.238,0.24-0.674,0.709-1.915,0.709c-0.422,0-1.163-0.025-1.612-0.297c-1.175-0.713-1.24-1.946-1.24-3.778
		C146.24,73.092,146.24,70.719,148.922,70.719z M148.115,75.209c0,0.271,0.041,0.969,0.092,1.207
		c0.146,0.683,0.675,0.683,0.807,0.683c0.885,0,0.885-0.665,0.885-2.699c0-1.179,0-2.173-0.872-2.173
		c-0.914,0-0.914,0.923-0.914,1.506L148.115,75.209L148.115,75.209z"/>
	<path d="M152.36,70.946h1.041v-2.727h1.838v2.729h1.35v1.451h-1.35v3.907c0,0.241,0,0.638,0.925,0.638c0.105,0,0.133,0,0.516-0.043
		v1.551c-0.753,0.1-0.831,0.112-1.108,0.112c-0.793,0-2.167-0.112-2.167-2.062v-4.106h-1.041L152.36,70.946L152.36,70.946z"/>
	<path d="M159.112,75.124c-0.015,0.769-0.015,2.062,1.28,2.062c0.568,0,1.033-0.112,1.864-0.554l0.198,1.506
		c-0.713,0.271-1.295,0.496-2.22,0.496c-0.858,0-2.271-0.199-2.695-1.932c-0.133-0.555-0.173-1.449-0.173-1.507
		c0-1.321,0-2.558,0.476-3.396c0.542-0.967,1.571-1.065,2.14-1.065c1.138,0,1.679,0.511,2.021,1.065
		c0.423,0.666,0.423,1.377,0.423,3.324H159.112L159.112,75.124z M160.894,74.002c0-1.137-0.015-2.004-0.938-2.004
		c-0.873,0-0.859,1.053-0.848,2.004H160.894z"/>
	<path d="M163.603,70.946h1.771v1.708h0.052c0.659-1.649,1.414-1.876,2.087-1.905v2.6c-0.78,0-1.268,0-2.021,0.686v4.444h-1.89
		V70.946L163.603,70.946z"/>
	<path d="M171.782,72.752c-0.622-0.457-0.926-0.61-1.361-0.61c-0.437,0-0.715,0.211-0.715,0.582c0,0.411,0.396,0.61,0.938,0.866
		c0.991,0.482,2.141,1.08,2.141,2.686c0,1.918-1.599,2.4-2.378,2.4c-1.269,0-1.981-0.61-2.354-0.938l0.833-1.362
		c0.356,0.398,0.779,0.852,1.479,0.852c0.555,0,0.726-0.398,0.726-0.667c0-0.427-0.276-0.556-0.833-0.841
		c-1.531-0.766-2.193-1.461-2.193-2.641c0-0.754,0.291-1.508,0.99-1.963c0.568-0.367,1.042-0.367,1.414-0.367
		c0.885,0,1.73,0.426,2.1,0.768L171.782,72.752z"/>
</g>
<g enable-background="new    ">
	<path d="M182.505,6.072c0,2.436-1.909,4.345-4.345,4.345c-2.408,0-4.347-1.909-4.347-4.345c0-2.408,1.938-4.317,4.347-4.317
		C180.595,1.754,182.505,3.665,182.505,6.072z M174.866,6.072c0,1.938,1.41,3.459,3.293,3.459c1.882,0,3.266-1.521,3.266-3.459
		c0-1.881-1.384-3.432-3.266-3.432C176.277,2.64,174.866,4.19,174.866,6.072z M177.467,8.313h-0.913v-4.29
		c0.359-0.083,0.857-0.166,1.55-0.166c0.774,0,1.137,0.139,1.439,0.359c0.248,0.167,0.441,0.499,0.441,0.914
		c0,0.498-0.415,0.857-0.914,1.024v0.055c0.443,0.139,0.638,0.47,0.775,1.051c0.139,0.637,0.222,0.914,0.305,1.052h-0.969
		c-0.139-0.167-0.222-0.527-0.332-1.052c-0.083-0.442-0.361-0.664-0.914-0.664h-0.471L177.467,8.313L177.467,8.313z M177.494,5.878
		h0.471c0.554,0,0.997-0.166,0.997-0.609c0-0.415-0.277-0.664-0.913-0.664c-0.276,0-0.443,0.027-0.555,0.055V5.878z"/>
</g>
</svg>
