<?xml version="1.0" encoding="utf-8"?>
<!-- Generator: Adobe Illustrator 16.0.3, SVG Export Plug-In . SVG Version: 6.00 Build 0)  -->
<!DOCTYPE svg PUBLIC "-//W3C//DTD SVG 1.1//EN" "http://www.w3.org/Graphics/SVG/1.1/DTD/svg11.dtd">
<svg version="1.1" id="Layer_1" xmlns="http://www.w3.org/2000/svg" xmlns:xlink="http://www.w3.org/1999/xlink" x="0px" y="0px"
	 width="720px" height="720px" viewBox="0 0 720 720" enable-background="new 0 0 720 720" xml:space="preserve">
<path fill="#FFFFFF" d="M93.561,258.825c2.144-1.343-0.132-7.105,2.094-8.364c8.082,0.801,17.311,0.463,26.137,0.521
	c1.526,4.306,1.045,9.089,1.045,13.592v100.893c-10.186-0.063-22.894,0.083-31.366,0c-1.544-24.944,0.499-53.473-1.046-78.414
	c-2.484-4.148-10.262-6.083-14.64-2.615c-1.753,1.89-0.877,4.456-1.043,6.797c-2.036,28.708-0.653,63.896-1.046,95.141
	c-0.017,1.429-0.42,4.166-0.523,5.229c-0.064,0.682,0.528,0.873,0.523,1.043c-0.466,26.655,0,61.832,0,92.53
	c0,4.769-0.299,9.362-0.523,14.112c-0.209,4.455-0.448,9.265,1.046,13.592c1.36,2.649,4.093,3.925,6.796,5.227
	c1.813,0.424,2.01-0.775,3.659-0.521c0.154,0.568,0.56,0.196,1.046,0c0.787-0.318,3.786-1.206,4.705-2.09
	c0.222-0.215,0.311-0.825,0.522-1.048c0.696-0.727,1.528-2.054,2.09-3.656c0.251-0.719,0.261-0.968,0.523-1.573
	c0.843-1.924,2.229-4.665,2.614-7.839c0.663-5.444,0-12.581,0-19.867v-39.727c0-7.156,0.015-13.567,0-18.82
	c0.786-1.131,0.583-3.25,2.092-3.659c0.655-1.088,1.28-2.205,2.09-3.137c7.739-0.861,18.921-0.861,26.661,0
	c1.751,2.454,0.477,5.605,0.521,8.364c0.131,7.573,0.25,16.866,0,26.138c-0.322,12.117-0.705,24.491-1.042,36.594
	c-0.196,7.026,0.834,11.186-0.521,17.772c-0.635,3.067-2.056,6.28-3.138,9.41c-1.676,4.84-3.212,8.776-5.75,13.069
	c-0.368,0.615-0.701,1.511-1.048,2.091c-0.308,0.519-1.115,0.921-1.569,1.566c-1.758,2.523-3.319,5.477-5.228,7.321
	c-0.299,0.286-1.475,0.504-2.09,1.043c-1.199,1.054-3.448,3.234-5.229,4.182c-2.181,1.166-5.458,1.933-8.886,3.139
	c-4.997,1.759-10.239,4.047-17.252,4.182c-5.941,0.112-12.954-1.654-17.773-3.139c-1.845-0.563-2.974-1.455-4.702-2.61
	c-0.522-0.35-1.107-0.17-1.571-0.521c-1.438-1.104-3.501-3.584-5.224-5.229c-1.523-1.445-3.306-2.562-4.706-4.181
	c-1.298-1.5-1.75-3.701-3.66-4.708c-1.434-4.313-3.311-8.188-4.705-12.545V315.805c0-4.729,0.317-9.26,0.521-14.114
	c0.254-5.96-0.925-11.766,0-17.251c0.618-3.648,1.892-5.713,3.137-8.886c0.286-0.729,0.134-1.396,0.522-2.092
	c0.515-0.917,1.981-1.622,2.615-2.612c0.757-1.189,0.677-2.651,1.568-3.661c2.042-1.981,4.117-4.463,6.271-6.797
	c2.042-2.206,4.086-4.646,6.797-6.271c3.28-1.966,9.677-4.232,14.116-4.705C79.741,248.268,86.488,253.785,93.561,258.825"/>
<path fill="#FFFFFF" d="M279.944,258.805c0.474,0.937,2.148,0.674,1.586,2.645c1.869,1.521,1.991,4.182,4.761,5.82
	c-0.107,2.936,1.813,5.29,2.646,7.936c0.895,2.834,0.718,6.154,2.646,8.466c-1.81,0.494,0.538,3.224,0.528,3.174
	c0.118,0.724-0.581,1.205-0.528,1.588c0.25,1.772,0.939,3.87,1.057,5.82c0.566,9.252,0,21.202,0,32.804
	c0,12.51,1.015,26.918-0.529,34.918c-0.076,0.405,0.655,0.813,0.529,1.058c-0.202,0.407-0.903-0.146-1.057,0.528
	c-0.305,1.33-0.093,2.345-0.529,3.707c-1.046,3.217-2.197,5.258-3.701,7.405c-0.331,0.47-0.18,1.083-0.532,1.587
	c-0.306,0.442-1.246,0.621-1.587,1.061c-0.373,0.478-0.184,1.023-0.527,1.586c-0.745,1.216-1.859,1.857-2.648,2.646
	c-1.613,1.612-2.897,2.723-4.76,3.705c-2.034,2.021-5.637,2.473-7.406,4.76h-2.117c1.211,1.078,3.095,1.49,4.761,2.113
	c0.956,1.338,3.595,0.994,3.705,3.178h-0.532c-0.323-0.771-0.638,0.054,0,0c0.104,0.601,0.532,0.293,0.532,0
	c2.109-0.523,1.593,1.582,3.704,1.062c1.896,2.333,3.562,4.9,6.347,6.348c1.674,2.559,3.369,5.098,4.763,7.937
	c0.272,29.358,0.529,60.774,0.529,89.941c0,4.52-0.779,9.161,1.057,12.172c3.701,0.412,4.36-3.287,5.292-5.289
	c1.204-2.588,2.163-5.259,2.646-7.938c0.404-2.23-0.127-6.459,1.057-7.406c0.33-0.267-0.525-0.675-0.53-0.53
	c0.1-3.248,0.05-8.183,1.059-9.521c0.327,0.769,0.641-0.056,0,0c0.995-2.524,3.144-4.307,5.819-3.707
	c2.843,0.644,2.689,3.428,3.706,5.821c0.422,2.223,2.436,5.079,1.587,6.88c1.182,2.274,1.159,5.152,1.587,7.935
	c0.667,4.355,2.162,11.576,2.113,14.286c-0.056,3.265-1.286,6.131-1.055,8.465c-0.118,0.411-0.018,1.049-0.532,1.06
	c-0.322-0.769-0.638,0.055,0,0c0.568,0.934-0.972,0.878-1.058,1.059c-0.332,0.729,0.244,1.877,0,2.646
	c-0.352,1.112-1.771,2.095-1.056,3.702c-1.746,0.02-2.025,1.505-2.115,3.175c-1.225,1.263-4.167,3.572-3.704,4.763
	c-0.599,0.991-2.051,1.126-2.646,2.114c-0.976,0.791-1.859,1.671-2.646,2.647c-1.577,0.475-1.933,0.823-2.116,1.584
	c-1.526,0.591-3.28,0.953-5.292,1.062c-0.598-0.156-0.806,0.356-1.056,0.527c-0.736,0.511-2.195-1.285-2.117,1.587
	c-0.722-1.955-2.546-0.555-4.23-0.527c-5.262,0.081-9.89-0.316-12.171-1.06c-1.206,1.007-4.195-1.729-5.82-0.527
	c-0.443-1.498-2.08-1.801-3.175-2.646c-0.814-1.303-2.124-2.108-3.173-3.175c-1.151-0.438-1.177-1.998-2.646-2.116
	c-0.393-0.881-0.176-1.696-0.53-2.646c-0.29-0.776-1.286-1.527-1.587-2.116c-0.744-1.476-0.898-3.601-2.646-4.231
	c0.549-2.959-1.785-7.305-3.176-10.057c0.147-4.686-0.36-5.554-1.586-8.993c0.32-19.647-0.53-46.088-0.53-68.779
	c0-8.491,0.896-16.771,0-23.812c-0.433-3.417-1.836-6.688-3.701-8.467c-1.496-0.443-1.458-2.421-3.174-2.643
	c-3.248-1.327-5.08-0.694-8.467-0.528c-1.945,2.29-1.057,5.216-1.057,7.934c-0.008,24.497,0.872,48.063,0,68.784
	c-0.235,5.566,0.57,10.849,0.529,15.873c-0.036,4.222-0.747,7.752-0.529,12.166c1.984,2.058,3.865-0.232,6.349,1.589
	c0.113,0.596,0.587,0.823,1.06,1.059c0.946,3.875,1.104,9.605,1.056,14.813c-0.014,1.714,0.666,3.337-0.529,4.23
	c0.218,1.81,1.429,0.672,0.529,2.647c0.32,1.269,0.76,2.413,0.531,4.231c-1.484,0.28-0.979,2.552-1.587,3.706
	c-4.509,2.022-9.866,1.587-15.344,1.587c-16.684-0.003-35.097,0.428-50.264-0.53c0.529-10.847-1.585-21.574,0-31.745
	c4.012-1.103,9.958-0.271,14.814-0.527c1.547-50.313-0.518-102.193,1.058-152.909c0.162-5.205-0.316-10.23-0.528-15.873
	c-0.063-1.654,0.41-2.866,0.528-3.175c0.196-0.517-0.528-0.957-0.528-1.058c-0.173-19.156,0.127-39.151,0-57.67
	c-0.038-0.957-0.684,0.089-1.059,0c-0.545-0.129-0.783-1.009-1.057-1.059c-4.443-0.803-9.336,0.409-11.641-1.587
	c-1.367-3.677-0.19-8.372,0-12.698c0.257-5.847-0.816-11.904,1.056-16.402c2.297-1.615,5.158-0.986,7.938-1.059
	c9.74-0.245,18.873,0.002,28.57,0c18.893,0,39.105-1.859,51.322,3.176c1.726,0.711,3.092,2.076,4.232,2.644
	c1.542,0.766,2.243,0.928,3.176,1.588c1.507,1.065,3.675,1.374,4.763,2.645C279.113,257.874,279.246,258.618,279.944,258.805
	 M233.913,372.561c-0.601,0.102-0.293,0.529,0,0.527c3.593,0.482,12.094,0.295,16.399-1.588c1.991-23.595-0.824-55.258,0.53-78.833
	c0.14-2.436,0.762-4.587-1.055-5.821c1.568-1.345-1.349-2.58,0-3.701c-1.76,0.651-2.151-1.366-3.176-2.118
	c-2.407-1.762-7.257-2.999-12.169-1.587c-2.219,3.12-0.695,7.359-2.117,10.582c1.761,12.384,1.058,26.071,1.058,39.682
	c0,13.609-0.138,27.097,0,39.681c1.229,0.776-1.033,1.68,1.059,1.59C234.043,371.973,232.861,371.341,233.913,372.561"/>
<path fill="#FFFFFF" d="M363.039,529.057c-0.456-2.453-2.178-3.408-3.169-5.282c-0.286-0.54,0.178-1.524,0-2.115
	c-0.055-0.175-0.925-0.822-1.059-1.06c-0.57-1.01-1.247-1.521-1.584-2.64c-1.177-4.906-2.353-9.872-3.171-14.271
	c-1.695-9.104-1.058-21.291-1.058-32.235c0-36.523-0.528-72.688-0.528-108.334c0-8.7,0.083-16.991,0-25.365
	c-0.179-18.03-0.283-35.56,2.115-51.789c1.319-2.377,2.25-5.149,2.642-8.456c1.856-1.841,2.782-4.616,3.697-7.4
	c0.53-0.325,1.191-0.605,1.585-1.056c0.399-0.453,0.746-1.734,1.058-2.114c0.24-0.294,0.271-0.28,0.529-0.527
	c0.271-0.262,0.773-0.262,1.055-0.526c0.604-0.577,0.63-1.639,1.061-2.116c1.324-1.472,3.116-3.028,4.227-4.229
	c1.085-1.175,2.215-1.559,3.171-2.114c1.661-0.96,2.654-1.219,4.759-2.113c0.31-0.131,0.568-0.852,1.056-1.057
	c0.69-0.294,1.652-0.379,2.113-0.527c3.743-1.214,7.734-1.999,11.625-2.642c4.571-0.758,9.204-0.682,13.741,0
	c13.015,1.949,25.123,7.642,33.295,13.738c0.229,2.002,2.103,2.683,3.172,4.228c1.793,2.609,2.452,6.115,4.753,8.456
	c1.782,7.649,3.386,15.425,3.7,23.781c0.338,9.035,0,18.499,0,28.009v111.503c0,19.104,1.059,38.292,0,56.019
	c-0.101,1.648-1.017,4.663-1.06,5.286c-0.049,0.701,0.571,1.211,0.528,1.582c-0.729,6.522-2.718,12.828-4.757,18.497
	c-2.163,5.549-6.717,10.992-10.568,14.797c-3.313,3.274-5.882,4.774-10.039,6.34c-11.261,4.24-24.281,5.643-38.051,4.229
	c-3.496-2.377-7.648-3.204-11.098-5.281c-2.507-1.512-4.263-3.874-6.342-5.813c-0.358-0.338-0.728-0.15-1.057-0.527
	c-0.913-1.054-1.729-1.153-2.643-2.116c-0.472-0.494-0.629-1.623-1.058-2.11c-0.712-0.813-1.439-0.571-1.585-1.588
	C363.398,530.108,363.612,529.189,363.039,529.057 M410.073,502.107c-0.874-36.438,0-70.869,0-107.809
	c0-29.262,0.873-61.658,0-87.197c-0.015-0.398,0.556-1.462,0.525-2.112c-0.153-3.745-0.476-6.083-0.525-8.983
	c-0.146-8.245-0.184-12.57-5.285-14.271c-2.216-0.738-3.784-0.622-5.284,0c-1.066,0.347-1.771,1.689-2.116,2.115
	c-0.174,0.223-0.954,0.381-1.057,0.53c-0.389,0.571-0.81,2.887-1.055,3.698c-0.059,0.196-1.001,0.778-1.059,1.058
	c-0.398,1.952,0.026,4.787,0,7.398c-0.721,68.799,0,136.609,0,203.456c0,4.607-0.649,9.392,1.059,13.74
	c3.438,3.024,9.404,4.559,14.268,2.112C411.528,511.663,410.186,506.886,410.073,502.107"/>
<path fill="#FFFFFF" d="M544.359,253.331v28.952c-1.474,0.318-3.611-0.018-5.788,0c-1.913,0.015-3.642,0.628-4.741,0
	c-0.334,2.882,0.574,5.571,1.057,8.422c0.951,5.661,2.113,11.7,3.155,17.896c1.375,8.171,2.586,17.058,4.212,26.321
	c0.998,5.669,2.656,11.615,3.159,17.37c0.452,5.174,0.034,10.636,0.526,15.793c0.097,1.003,0.944,2.252,1.053,3.156
	c0.451,3.727,0.447,7.339,1.051,11.054c0.74,0.664,0.029,2.778,2.108,2.105c1.075,1.066,1.049-0.215,1.574-1.053v-3.687
	c4.224-32.098,7.824-64.816,11.582-97.379c-3.161-1.221-8.593-0.179-12.631-0.527c-0.08-9.57-0.865-18.437-0.525-28.425h56.847
	v29.48c-4.471-0.084-8.821-0.052-12.632,0.525c1.861,16.697,4.183,37.49,5.261,51.586c2.762,16.887,3.266,36.039,6.32,52.636
	c2.21,0.063,2.79,0.141,3.685-0.525c1.202-0.9,1.837-6.432,2.103-8.95c0.456-4.288,0.453-9.406,0.524-13.156
	c0.181-8.874,1.316-18.41,2.11-26.848c1.727-18.397,3.523-37.228,5.264-54.216c-1.421-1.211-5.08-0.186-7.374-0.526V253.33
	c16.057-0.265,33.225,0.587,48.43-0.525c0.104,3.964,0,9.606,0,15.264c0,5.563,0.727,11.461-1.052,15.267
	c-3.674,1.278-8.335-0.707-13.16,0c-2.686,21.873-3.87,43.803-5.789,65.797c-5.66,64.945-11.604,131.314-16.845,197.394
	c-9.682,1.195-21.559,0.198-32.108,0.526c-5.197-32.704-9.984-65.811-15.27-98.436c0.07-2.518-0.182-4.729-1.574-5.788
	c-1.579-0.64-0.823,1.362-1.052,2.105c-0.258,0.824-0.962,1.462-1.058,2.108c-0.085,0.604,0.522,1.68,0.525,2.629
	c0.011,0.823-0.94,1.549,0,2.105c-1.394-0.168,0.495,2.947-1.579,2.104c1.51,2.091,0.306,3.161,0,5.787
	c0.414,5.626-0.921,11.701-1.575,17.371c-0.648,5.626-0.303,11.245-2.106,16.32c-0.52,18.425-3.602,34.296-4.737,52.113
	c-10.813,0.285-20.72-0.339-31.055-0.529c-10.375-81.197-20.936-163.065-31.584-244.77c-0.355-2.749-0.677-5.739-1.054-8.42
	c-0.369-2.627,0.396-5.202-1.579-7.367c-4.279-0.738-10.22-0.224-14.738-1.055c-1.594-9.216,0.591-19.006,0-28.95
	c-0.021-0.9,0.392-1.365,1.051-1.58c1.833-0.525,5.229,0.453,7.899,0.525c2.057,0.057,4.176-0.563,6.313-0.525
	C512.703,253.062,528.423,253.701,544.359,253.331"/>
<rect x="28.515" y="561.374" fill="#D51F26" width="612.681" height="124.517"/>
<path fill="#FFFFFF" d="M58.712,592.827c-0.09,0.007-0.172,0.02-0.146,0.146c0.009,0.29-0.568,0.521-0.58,0.579
	c-0.037,0.124,0.18,0.205,0.144,0.29c-0.019,0.043-0.243,0.254-0.291,0.29c-0.067,0.056,0.118,0.216,0.147,0.147
	c-0.204,0.492-0.035-0.006-0.292,0.291c-0.185,2.232,0.036,4.947,0,6.974c-0.002,0.132,0.139,0.472,0.145,0.436
	c-0.042,0.253-0.671,0.21-0.145,0.437c0.156,0.509,0.322,0.971,0.436,1.453c0.107,0.451-0.045,0.345,0,0.582
	c0.096,0.504,0.443,0.94,0.582,1.311c0.297,0.775,0.59,1.516,0.436,2.322c0.248,0.307,0.253,0.579,0.437,0.875
	c0.158,0.252,0.436,0.871,0.436,1.015c0,0.052-0.128,0.224-0.146,0.146c0.23,1.104,0.975,1.797,1.018,2.909
	c0.063,0.282,0.415-0.241,0.291,0.435c0.333,0.054,0.14,0.635,0.581,0.581c-0.047,0.995,0.651,1.782,0.872,2.762
	c0.273,0.295,0.368,0.671,0.58,1.018c0.108,0.174,0.348,0.276,0.438,0.435c0.126,0.228,0.038,0.511,0.145,0.728
	c0.374,0.75,0.8,1.449,1.306,2.033c0.035,0.76,0.533,1.562,0.873,2.331c0.063,0.133,0.255,0.196,0.292,0.287
	c0.165,0.42-0.089,0.822,0.291,0.871c0.14,0.149,0.288,0.296,0.435,0.438c-0.008,0.247,0.112,0.372,0.288,0.433
	c0.115,0.521,0.507,0.665,0.583,0.874c-0.017-0.046-0.282,0.291,0,0.291c0.05,0.34,0.149,0.624,0.437,0.726
	c-0.296,0.469,0.573,0.456,0.144,0.581c0.088,0.306,0.305,0.473,0.437,0.728c-0.166,0.027-0.083,0.146,0,0.146
	c0.36,1.056,0.88,2.033,1.307,3.053c0.45,1.063,0.791,2.117,1.166,3.196c0.382,1.112,0.657,2.237,1.016,3.344
	c0.018,0.052,0.248,0.027,0.292,0.145c-0.026-0.068-0.147,0.077-0.147,0.146c0,0.136,0.135,0.104,0.147,0.145
	c0.258,1.059,0.21,1.9,0.58,2.761c0.058,1.619,0.852,3.301,0.727,5.521c-0.04,0.729-0.076,2.233,0.144,3.342
	c-0.413,0.529-0.331,1.292-0.436,1.891c-0.12,0.704-0.292,1.352-0.435,2.032c-0.274,1.31-0.486,2.664-1.018,3.781
	c-0.193,0.403-0.577,0.757-0.729,1.015c-0.399,0.695-0.867,1.186-1.16,1.889c-0.505-0.033-0.716,0.482-1.02,0.729
	c-0.257,0.215-0.56,0.469-0.723,0.579c-0.339,0.223-0.583,0.354-0.875,0.58c-0.533,0.422-1.067,0.732-1.596,1.166
	c-1.747,0.526-3.856,0.694-5.667,1.162c-0.728-0.209-1.627,0.06-2.47-0.148c-0.256-0.061-1.283-0.552-1.31-0.58
	c-0.465-0.442-1.231-0.679-1.454-1.161c-0.363-0.121-0.458-0.509-0.726-0.728c-0.436-0.097-0.4-0.664-1.019-0.581
	c-0.324,0.12-0.233,0.672-0.288,1.161c-0.069,0.573,0.091,1.233-0.292,1.598c-1.668,0.322-4.336-0.147-5.814,0.148
	c-0.129,0.022-0.133-0.146-0.146-0.148c-0.791-0.051-1.059-0.161-1.6-0.289c-0.42-1.544-0.187-3.396-0.144-5.377
	c0.148-6.898-0.283-14.473,0-20.926c0.066-1.494-0.264-2.933,0.293-4.211c0.921-0.418,2.377-0.15,3.777-0.15
	c1.395,0,2.848-0.214,3.777,0.15c0.266,3.229,0.15,6.36,0.147,9.588c-0.004,2.729,0.001,6.526,0,9.593
	c0.049,0.552,0.766,1.015,1.016,1.306c0.132,0.159,0.172,0.471,0.291,0.584c0.511,0.483,1.498,1.119,2.179,1.162
	c1.191,0.072,1.907-0.65,2.76-1.456c0.605-1.559,0.966-3.364,0.872-5.229c-0.089-1.821-0.736-3.48-1.014-5.087
	c-0.41-1.045-0.849-2.062-1.02-3.34c-0.597-1.148-1.051-2.441-1.599-3.637c-0.27-0.587-0.605-1.13-0.872-1.745
	c-0.268-0.611-0.292-1.457-0.871-1.889c-0.292-1.4-0.981-2.539-1.6-3.629c-0.659-1.167-1.163-2.359-1.743-3.635
	c-0.401-1.003-0.586-2.225-1.165-3.055c-0.015-0.178-0.042-0.343-0.287-0.289c0.03-0.181,0.225-0.296-0.147-0.289
	c0.367-0.365-0.167-0.57-0.144-1.018c-0.522-0.509-0.38-1.282-0.582-1.89c-0.075-0.217-0.354-0.506-0.438-0.727
	c-0.112-0.303-0.176-0.703-0.29-1.021c-0.56-1.569-1.089-3.368-1.453-4.794c-0.073-0.285-0.229-0.688-0.289-1.017
	c-0.356-1.882-0.438-4.066-1.02-6.249c0.188-0.226,0.021-0.46,0-0.729c-0.061-0.894,0.083-1.922,0.147-3.052
	c0.049-0.896,0.034-1.897,0.145-2.761c0.059-0.442,0.24-0.849,0.292-1.309c0.049-0.479,0.073-0.971,0.144-1.453
	c0.19-1.311,0.44-2.954,0.87-3.777c0.168-0.315,0.309-0.57,0.438-0.872c0.062-0.146,0.252-0.191,0.29-0.293
	c0.085-0.204-0.075-0.512,0-0.724c0.032-0.095,0.238-0.301,0.291-0.436c0.088-0.226,0.044-0.373,0.145-0.582
	c0.263-0.543,0.904-1.172,1.165-1.455c0.331-0.355,0.307-0.835,0.579-1.162c0.567,0.083,0.511-0.46,0.873-0.579
	c0.286-0.249,0.726-0.338,0.873-0.728c0.702-0.111,1.312-0.472,1.889-0.729c0.621-0.276,1.247-0.443,1.743-0.872
	c2.557-0.155,4.484-1.03,6.976-0.29c0.497,0.024,0.94,0.587,1.308,0.29c0.638-0.039,0.001-1.354,0.438-1.598
	c2.486-0.239,5.942-0.239,8.427,0c0.475,1.131,0.29,2.383,0.29,3.635v23.54c0,1.248,0.209,2.505-0.29,3.633
	c-2.12,0.23-5.067,0.193-7.267,0.146c-0.769-0.017-1.632,0.183-2.179-0.29c-0.177-2.908,0.147-6.529,0.147-10.027
	c0-1.589-0.082-3.262-0.147-4.794c-0.071-1.729-0.188-3.338-0.726-4.507c-0.481-1.042-1.363-1.803-2.326-2.326
	C59.707,592.269,58.965,592.307,58.712,592.827"/>
<path fill="#FFFFFF" d="M416.869,592.628c-0.09,0.007-0.171,0.021-0.145,0.146c0.009,0.288-0.566,0.521-0.582,0.578
	c-0.035,0.124,0.183,0.205,0.146,0.291c-0.021,0.042-0.242,0.253-0.29,0.289c-0.068,0.057,0.115,0.217,0.145,0.148
	c-0.202,0.493-0.033-0.006-0.289,0.29c-0.188,2.232,0.034,4.948,0,6.975c-0.003,0.128,0.138,0.473,0.146,0.437
	c-0.045,0.253-0.672,0.209-0.146,0.436c0.155,0.508,0.32,0.971,0.436,1.452c0.108,0.45-0.045,0.346,0,0.582
	c0.097,0.504,0.44,0.942,0.58,1.311c0.297,0.775,0.592,1.517,0.436,2.322c0.249,0.307,0.256,0.579,0.438,0.875
	c0.158,0.252,0.438,0.871,0.438,1.016c0,0.051-0.131,0.223-0.145,0.146c0.227,1.104,0.972,1.795,1.015,2.907
	c0.063,0.285,0.417-0.24,0.293,0.437c0.333,0.054,0.139,0.634,0.58,0.58c-0.048,0.995,0.651,1.78,0.872,2.763
	c0.271,0.295,0.369,0.671,0.58,1.018c0.108,0.172,0.349,0.276,0.436,0.435c0.128,0.227,0.04,0.511,0.147,0.727
	c0.374,0.75,0.798,1.45,1.308,2.036c0.032,0.759,0.528,1.559,0.871,2.329c0.063,0.132,0.255,0.195,0.292,0.288
	c0.165,0.42-0.088,0.819,0.29,0.869c0.144,0.149,0.286,0.297,0.437,0.438c-0.012,0.247,0.109,0.372,0.29,0.434
	c0.112,0.521,0.504,0.664,0.583,0.874c-0.02-0.047-0.284,0.29,0,0.29c0.048,0.34,0.146,0.625,0.435,0.727
	c-0.294,0.468,0.575,0.456,0.146,0.581c0.087,0.306,0.303,0.472,0.436,0.727c-0.165,0.028-0.081,0.147,0,0.147
	c0.359,1.055,0.882,2.032,1.31,3.053c0.447,1.062,0.788,2.117,1.163,3.196c0.385,1.111,0.657,2.236,1.018,3.344
	c0.017,0.051,0.247,0.027,0.291,0.144c-0.025-0.067-0.146,0.078-0.146,0.147c0,0.135,0.135,0.104,0.146,0.144
	c0.26,1.06,0.211,1.898,0.58,2.761c0.058,1.619,0.852,3.302,0.727,5.521c-0.041,0.729-0.076,2.234,0.146,3.343
	c-0.414,0.529-0.332,1.29-0.438,1.89c-0.119,0.704-0.292,1.352-0.435,2.033c-0.271,1.312-0.484,2.664-1.019,3.78
	c-0.191,0.404-0.575,0.758-0.729,1.015c-0.401,0.695-0.866,1.187-1.16,1.89c-0.505-0.034-0.717,0.481-1.021,0.729
	c-0.257,0.215-0.559,0.47-0.726,0.579c-0.338,0.223-0.58,0.355-0.871,0.581c-0.536,0.421-1.066,0.732-1.6,1.166
	c-1.744,0.526-3.855,0.695-5.666,1.161c-0.728-0.208-1.626,0.06-2.472-0.148c-0.254-0.061-1.279-0.552-1.308-0.58
	c-0.468-0.441-1.233-0.679-1.453-1.16c-0.364-0.122-0.461-0.511-0.725-0.729c-0.439-0.096-0.403-0.664-1.021-0.581
	c-0.324,0.12-0.233,0.672-0.29,1.163c-0.065,0.572,0.093,1.232-0.291,1.596c-1.668,0.322-4.333-0.146-5.811,0.148
	c-0.131,0.023-0.135-0.146-0.147-0.148c-0.79-0.05-1.059-0.16-1.598-0.289c-0.425-1.544-0.188-3.396-0.146-5.377
	c0.146-6.897-0.281-14.473,0-20.926c0.067-1.494-0.264-2.932,0.291-4.211c0.925-0.417,2.378-0.148,3.778-0.148
	c1.396,0,2.848-0.216,3.777,0.148c0.265,3.229,0.148,6.362,0.146,9.588c-0.002,2.729,0.004,6.527,0,9.593
	c0.054,0.553,0.769,1.016,1.019,1.307c0.132,0.159,0.174,0.471,0.293,0.584c0.509,0.482,1.495,1.119,2.178,1.162
	c1.188,0.071,1.906-0.651,2.761-1.455c0.604-1.561,0.966-3.366,0.872-5.231c-0.089-1.82-0.739-3.479-1.015-5.087
	c-0.41-1.044-0.851-2.061-1.022-3.34c-0.593-1.147-1.049-2.441-1.596-3.636c-0.271-0.587-0.606-1.13-0.873-1.745
	c-0.266-0.612-0.29-1.456-0.871-1.888c-0.291-1.401-0.98-2.541-1.6-3.631c-0.658-1.167-1.162-2.358-1.742-3.635
	c-0.404-1.003-0.586-2.223-1.163-3.056c-0.017-0.175-0.045-0.341-0.29-0.287c0.031-0.181,0.226-0.296-0.146-0.29
	c0.364-0.364-0.167-0.57-0.146-1.016c-0.521-0.511-0.38-1.282-0.582-1.892c-0.073-0.217-0.353-0.506-0.438-0.726
	c-0.11-0.303-0.176-0.703-0.289-1.021c-0.559-1.568-1.088-3.369-1.45-4.794c-0.074-0.286-0.231-0.688-0.292-1.017
	c-0.356-1.882-0.438-4.067-1.019-6.249c0.188-0.227,0.02-0.46,0-0.729c-0.062-0.894,0.081-1.924,0.146-3.052
	c0.049-0.896,0.033-1.896,0.146-2.76c0.061-0.444,0.24-0.851,0.293-1.311c0.052-0.478,0.073-0.972,0.146-1.452
	c0.188-1.312,0.439-2.954,0.87-3.777c0.165-0.316,0.31-0.571,0.437-0.873c0.062-0.146,0.254-0.19,0.291-0.292
	c0.085-0.205-0.074-0.512,0-0.725c0.033-0.094,0.237-0.301,0.292-0.436c0.087-0.225,0.042-0.373,0.144-0.582
	c0.266-0.542,0.904-1.172,1.163-1.455c0.333-0.354,0.309-0.835,0.583-1.162c0.563,0.083,0.51-0.46,0.869-0.579
	c0.287-0.249,0.726-0.338,0.874-0.726c0.701-0.113,1.311-0.472,1.889-0.729c0.621-0.275,1.249-0.442,1.744-0.872
	c2.556-0.155,4.483-1.026,6.976-0.289c0.499,0.024,0.938,0.587,1.307,0.289c0.641-0.038,0.003-1.354,0.438-1.598
	c2.485-0.238,5.94-0.238,8.428,0c0.476,1.131,0.29,2.383,0.29,3.635v23.54c0,1.249,0.208,2.505-0.29,3.634
	c-2.121,0.229-5.067,0.192-7.267,0.146c-0.771-0.016-1.635,0.184-2.182-0.29c-0.179-2.907,0.146-6.529,0.146-10.027
	c0-1.588-0.081-3.262-0.146-4.794c-0.069-1.729-0.188-3.34-0.726-4.507c-0.481-1.042-1.363-1.802-2.325-2.326
	C417.862,592.07,417.123,592.107,416.869,592.628"/>
<path fill="#FFFFFF" d="M97.921,583.715c0.026,3.279-0.082,5.205,0,8.101c0.183,0.765-0.979,0.182-1.156,0.578
	c0.091,8.684-0.193,17.746,0.143,26.186c1.017,0.601,2.396,0.037,3.76,0.146c0.443-0.88,0.29-1.999,0.29-3.037v-19.531
	c0-1.579,0.238-3.16-0.721-3.762c-0.1-0.285-0.864,0.094-0.726-0.435v-8.39c5.208-0.016,11.026,0.018,15.77,0
	c0.154,0.354,0.512,0.467,0.722,0.867c0.101,0.191-0.088,0.525,0,0.724c0.024,0.053,0.432,0.176,0.434,0.288v5.933
	c-1.072,0.087-2.541-0.225-3.184,0.291c-0.72,1.044-0.432,2.475-0.432,3.616v52.657c0,2.608-0.156,5.168,0.29,7.669
	c0.209,0.347,1.215,0.415,1.593,0.143c0.562,0.332,0.769,0.122,1.299,0.436c-0.094,2.896,0.192,6.173-0.144,8.823
	c-5.306-0.098-10.993,0.193-16.059-0.142c0.241-2.462,0.118-5.285,0.145-7.958c0.02-0.45,0.328-0.148,0.869-0.289
	c0.188-0.299,0.809-0.154,0.869-0.579c0.275-7.774,0.143-15.616,0.143-23.435c0-1.011,0.175-2.102-0.29-3.041
	c-0.494-0.371-1.218-0.519-2.167-0.436c-0.656,0.22-1.347-0.208-1.883,0.292c-0.164,0.174-0.324,0.292-0.434,0.435
	c-0.446,0.568-0.495,0.875-0.579,2.022c-0.229,3.192,0,6.863,0,10.271v13.6c0.146,0.288,0.251,0.619,0.579,0.727
	c0.45-0.016,0.801,0.063,1.012,0.288c-0.094,2.703,0.191,5.781-0.144,8.244c-5.452-0.093-11.281,0.188-16.491-0.142
	c-0.242-0.94-0.146-2.385-0.146-3.763c0-1.373-0.18-2.69,0.287-3.472c0.2-0.33,0.667-0.254,0.581-0.725
	c0.858-0.298,1.945-0.37,2.892-0.58c0.507-2.534,0.29-5.218,0.29-7.811v-48.319c0-2.509,0.267-5.126-0.43-7.522
	c-0.92-0.604-2.3,0.149-3.042-0.58c-0.249-1.166-0.144-2.739-0.144-4.192c0-1.508-0.202-3.01,0.29-4.052
	c0.212-0.074,0.363-0.214,0.58-0.289C87.649,583.665,93.095,583.378,97.921,583.715"/>
<path fill="#FFFFFF" d="M126.916,659.436c-0.122-0.664-0.59-0.925-0.857-1.432c-0.075-0.146,0.048-0.414,0-0.572
	c-0.014-0.049-0.25-0.224-0.285-0.289c-0.156-0.271-0.338-0.412-0.431-0.712c-0.318-1.332-0.636-2.675-0.858-3.866
	c-0.46-2.466-0.286-5.769-0.286-8.729c0-9.896-0.144-19.688-0.144-29.342c0-2.358,0.022-4.604,0-6.872
	c-0.049-4.883-0.078-9.632,0.571-14.027c0.358-0.643,0.61-1.395,0.716-2.29c0.503-0.499,0.752-1.25,1.003-2.004
	c0.142-0.087,0.322-0.166,0.43-0.286c0.106-0.124,0.202-0.472,0.285-0.572c0.064-0.077,0.073-0.076,0.143-0.144
	c0.073-0.069,0.211-0.069,0.287-0.144c0.164-0.156,0.169-0.44,0.288-0.571c0.358-0.4,0.844-0.82,1.143-1.146
	c0.295-0.317,0.6-0.422,0.858-0.572c0.451-0.262,0.72-0.331,1.289-0.57c0.085-0.037,0.156-0.229,0.288-0.288
	c0.187-0.08,0.447-0.104,0.573-0.142c1.013-0.33,2.093-0.543,3.149-0.719c1.236-0.203,2.492-0.185,3.72,0
	c3.524,0.53,6.805,2.072,9.019,3.724c0.061,0.54,0.569,0.727,0.859,1.145c0.486,0.708,0.665,1.656,1.288,2.29
	c0.482,2.07,0.918,4.181,1.001,6.441c0.091,2.445,0,5.009,0,7.586v30.2c0,5.174,0.287,10.371,0,15.173
	c-0.027,0.445-0.274,1.263-0.285,1.433c-0.013,0.188,0.154,0.326,0.143,0.428c-0.2,1.769-0.737,3.475-1.288,5.012
	c-0.588,1.502-1.821,2.976-2.865,4.007c-0.898,0.888-1.592,1.294-2.719,1.718c-3.05,1.147-6.575,1.527-10.305,1.146
	c-0.947-0.646-2.073-0.87-3.006-1.435c-0.678-0.408-1.155-1.047-1.718-1.574c-0.098-0.091-0.196-0.039-0.286-0.143
	c-0.247-0.285-0.467-0.309-0.717-0.573c-0.125-0.131-0.167-0.438-0.285-0.569c-0.193-0.222-0.389-0.155-0.429-0.432
	C127.017,659.72,127.073,659.469,126.916,659.436 M139.656,652.136c-0.238-9.87,0-19.194,0-29.2c0-7.925,0.237-16.699,0-23.615
	c-0.003-0.109,0.151-0.397,0.144-0.575c-0.042-1.013-0.13-1.646-0.144-2.435c-0.039-2.23-0.049-3.4-1.43-3.862
	c-0.602-0.199-1.027-0.169-1.432,0c-0.288,0.095-0.48,0.457-0.572,0.572c-0.05,0.06-0.259,0.104-0.288,0.144
	c-0.104,0.155-0.218,0.782-0.286,1.002c-0.015,0.053-0.272,0.211-0.286,0.286c-0.108,0.53,0.008,1.296,0,2.004
	c-0.196,18.635,0,37.002,0,55.106c0,1.25-0.177,2.544,0.286,3.721c0.932,0.82,2.547,1.236,3.863,0.573
	C140.051,654.723,139.688,653.428,139.656,652.136"/>
<path fill="#FFFFFF" d="M166.047,659.436c-0.122-0.664-0.591-0.925-0.857-1.432c-0.076-0.146,0.048-0.414,0-0.572
	c-0.016-0.049-0.252-0.224-0.286-0.289c-0.157-0.271-0.339-0.412-0.431-0.712c-0.318-1.332-0.636-2.675-0.858-3.866
	c-0.459-2.466-0.287-5.769-0.287-8.729c0-9.896-0.143-19.688-0.143-29.342c0-2.358,0.021-4.604,0-6.872
	c-0.049-4.883-0.078-9.632,0.571-14.027c0.358-0.643,0.61-1.395,0.716-2.29c0.503-0.499,0.752-1.25,1.002-2.004
	c0.143-0.087,0.322-0.166,0.431-0.286c0.106-0.124,0.202-0.472,0.286-0.572c0.064-0.077,0.072-0.076,0.142-0.144
	c0.072-0.069,0.21-0.069,0.287-0.144c0.163-0.156,0.169-0.44,0.287-0.571c0.358-0.4,0.844-0.82,1.143-1.146
	c0.295-0.317,0.6-0.422,0.859-0.572c0.45-0.262,0.72-0.331,1.288-0.57c0.086-0.037,0.156-0.229,0.288-0.288
	c0.187-0.08,0.448-0.104,0.573-0.142c1.015-0.33,2.094-0.543,3.15-0.719c1.236-0.203,2.491-0.185,3.72,0
	c3.523,0.53,6.805,2.072,9.018,3.724c0.06,0.54,0.569,0.727,0.858,1.145c0.487,0.708,0.666,1.656,1.289,2.29
	c0.481,2.07,0.918,4.181,1.001,6.441c0.092,2.445,0,5.009,0,7.586v30.2c0,5.174,0.286,10.371,0,15.173
	c-0.026,0.445-0.274,1.263-0.286,1.433c-0.014,0.188,0.154,0.326,0.142,0.428c-0.2,1.769-0.736,3.475-1.287,5.012
	c-0.589,1.502-1.821,2.976-2.865,4.007c-0.897,0.888-1.593,1.294-2.719,1.718c-3.05,1.147-6.575,1.527-10.306,1.146
	c-0.946-0.646-2.073-0.87-3.006-1.435c-0.678-0.408-1.153-1.047-1.717-1.574c-0.098-0.091-0.197-0.039-0.287-0.143
	c-0.245-0.285-0.465-0.309-0.715-0.573c-0.126-0.131-0.167-0.438-0.286-0.569c-0.193-0.222-0.389-0.155-0.429-0.432
	C166.146,659.72,166.203,659.469,166.047,659.436 M178.788,652.136c-0.238-9.87,0-19.194,0-29.2c0-7.925,0.236-16.699,0-23.615
	c-0.004-0.109,0.151-0.397,0.143-0.575c-0.042-1.013-0.13-1.646-0.143-2.435c-0.04-2.23-0.049-3.4-1.431-3.862
	c-0.602-0.199-1.027-0.169-1.433,0c-0.288,0.095-0.479,0.457-0.571,0.572c-0.05,0.06-0.26,0.104-0.289,0.144
	c-0.103,0.155-0.218,0.782-0.285,1.002c-0.015,0.053-0.272,0.211-0.285,0.286c-0.109,0.53,0.008,1.296,0,2.004
	c-0.196,18.635,0,37.002,0,55.106c0,1.25-0.178,2.544,0.285,3.721c0.932,0.82,2.547,1.236,3.864,0.573
	C179.182,654.723,178.818,653.428,178.788,652.136"/>
<path fill="#FFFFFF" d="M199.833,583.877c10.456,0.096,21.292-0.198,31.512,0.145c0.116,8.969,0.321,21.325,0,31.651
	c-1.606,0.604-4.268,0.147-6.333,0.286c-0.468-7.487,0.256-16.176-0.43-23.449c-0.571-0.631-2.01-0.391-3.167-0.434
	c-0.68,0.935-0.431,2.213-0.431,3.739c0,17.517-0.145,34.365-0.145,52.521c0,2.567-0.162,5.233,0.287,7.767
	c0.301,0.372,0.745,0.133,1.152,0.147c0.887,0.032,2.218,0.079,3.456,0.144c0.569,1.086,0.196,2.559,0.141,4.03
	c-0.055,1.535,0.159,3.117-0.141,4.46c-0.701,0.408-1.625,0.278-2.446,0.286c-0.372,0.004-0.755-0.006-1.153,0
	c-3.541,0.046-8.206,0.17-11.943,0c-1.54-0.069-2.963,0.034-4.03-0.43c-0.485-1.034-0.287-2.533-0.287-4.031
	c0-1.406-0.115-2.903,0.145-4.025c0.68-0.762,2.563-0.315,3.886-0.434c0.238-20.771,0.238-42.543,0-63.313
	c-0.454-0.675-2.454-0.49-3.311-0.288c-0.433,0.727-0.274,1.683-0.288,2.591c-0.072,4.778,0,10.217,0,15.251
	c0,1.978,0.202,4.023-0.288,5.758c-0.789,0.442-1.945,0.313-3.168,0.286c-1.105-0.02-2.24-0.022-3.019-0.286
	c-0.335-10.36-0.048-21.343-0.146-31.942C199.674,584.102,199.665,583.898,199.833,583.877"/>
<path fill="#FFFFFF" d="M245.272,583.999h17.77c0.022,2.843-0.037,5.948,0,8.379c-1.084,0.376-2.662-0.056-3.612,0.145
	c-0.265,19.341-0.145,39.483-0.145,59.228c0,1.166-0.187,2.477,0.29,3.614c1.035,0.697,3.499-0.035,4.766,0.431
	c0.714,1.713,0.473,4.614,0.433,6.501c-0.013,0.752,0.325,1.491-0.142,2.026c-0.833,0.532-1.843,0.285-2.745,0.285
	c-0.527,0-1.084-0.006-1.589,0c-2.998,0.038-5.641,0.048-8.667,0c-0.373-0.006-0.763,0.146-1.157,0.144
	c-1.764-0.017-3.973-0.024-6.067-0.144c-0.211-1.398-0.2-3.058-0.145-4.62c0.054-1.522,0.09-3.031,0.435-4.192
	c0.259-0.429,1.41-0.191,1.588-0.285c0.594-0.252,0.936,0.092,1.588-0.146c0.243-20.468,0.243-41.943,0-62.412
	c-0.664-0.389-2.223,0.106-2.889-0.285c-0.271-2.116-0.092-5.468-0.143-8.236C244.919,584.225,245.064,584.077,245.272,583.999"/>
<path fill="#FFFFFF" d="M276.802,591.757c0.064-0.197-0.146-0.315-0.146-0.432c0-0.306,0.157-0.768,0.146-1.292
	c-0.025-1.262-0.516-4.062,0.287-5.028c0.204-0.243,0.706-0.42,1.007-0.575c5.038-0.136,8.983,0.288,13.642,0
	c1.651,6.685,3.243,13.811,4.742,20.253c0.355,1.524,0.647,2.953,1.004,4.453c0.549,2.306,1.061,4.59,1.581,6.896
	c0.343,1.521,0.783,3.036,1.006,4.597c0.354,0.169,0.001,1.049,0.573,1.004c0.551-0.149,0.364-0.726,0.431-1.146
	c0.095-0.589,0.131-1.139,0.144-1.727c0.092-3.826,0.174-7.814,0-11.488c-0.242-5.12-0.106-10.309-0.144-14.796
	c-1.184-0.333-2.081-0.099-3.446-0.145c0.064-2.807-0.096-6.111,0-8.472c4.308,0.095,8.999-0.191,13.069,0.143
	c-0.029,1.939,0.038,4.216,0,6.032c-0.014,0.636,0.232,1.459-0.287,1.866c-0.185,0.775-1.38,0.535-2.298,0.574
	c-0.412,21.976,0,45.397,0,67.221c0,1.339,0.286,2.909-0.434,4.163c-2.542,0.232-5.361,0.189-8.043,0.29
	c-2.775-11.144-5.25-22.596-7.9-33.756c-0.439-1.854-0.804-3.735-1.291-5.603c-0.49-1.871-0.806-3.777-1.436-5.6
	c-0.174,0.208-0.629,0.139-0.43,0.719v1.146v36.053c1.717,0.232,2.725-0.305,4.164,0.287c0.46,0.787,0.288,1.935,0.288,3.159
	c0,1.191,0.095,2.53-0.145,3.444c-0.551,0.366-1.305,0.151-2.009,0.148c-3.685-0.024-7.998,0.121-11.061,0
	c-0.213-1.843-0.119-4.353-0.144-6.754c0.26-0.411,1.214-0.127,1.58-0.432c0.265-11.141,0.145-22.044,0.145-33.178
	c0-5.048,0.143-9.684,0.143-15.367c0-5.515,0.076-11.669-0.143-15.368c-1.187-0.632-3.737,0.101-4.452-1.007
	C276.914,591.935,276.94,591.76,276.802,591.757"/>
<path fill="#FFFFFF" d="M336.022,587.743c0.717-0.326,0.195-1.892,0.568-2.562c2.412,0.059,5.327-0.135,7.112,0.141
	c-0.331,9.251-0.05,19.104-0.144,28.59h-8.389c-0.249-2.97-0.144-6.131-0.144-9.245c-0.002-3.114-0.43-6.146-0.144-8.96
	c-0.362-0.633-0.257-1.734-0.71-2.276c0.438-0.141-0.409-0.134-0.286-0.425c-0.23-0.387-1.125-0.106-1.136-0.714
	c-0.593,0.122-1.22,0.476-1.708,0.284c-0.151,0.419-0.572,0.568-0.71,0.998c-0.265,0.303-0.193,0.941-0.57,1.137
	c0.428,19.326-0.107,40.144,0,60.021c0.506,0.914,2.133,0.71,3.558,0.713c0.456-0.804,0.282-1.771,0.282-2.706
	c0-4.587,0-9.695,0-14.504c0-1.938,0.146-3.819-0.282-5.548c-0.201-0.81-1.518-0.018-1.708-0.568v-8.392
	c4.978,0.092,10.333-0.188,15.076,0.142c0.482,1.111,0.282,2.657,0.282,4.125v4.267c-0.878,0.621-2.071,0.172-2.984,0.854
	c-0.262,8.188-0.146,17.26-0.146,25.883c0,1.164,0.134,2.349-0.284,3.413c-1.104,0.32-2.788,0.059-4.124,0.143
	c-0.358-0.591,0.131-2.026-0.568-2.275c-1.467-0.188-1.669,0.892-2.562,1.282c-0.407,0.822-1.434,1.029-2.132,1.564
	c-2.575,0.241-5.645,0.66-8.106,0c-1.225-0.332-2.125-1.078-3.131-1.283c-0.728-0.834-1.78-1.345-2.7-1.988
	c-0.318-0.773-0.938-1.241-1.425-1.85c-0.231-1.047-0.517-2.042-0.851-2.987c-0.085-13.067,0.113-26.26,0-38.685
	c-0.026-2.631,0.027-5.142,0.14-7.679c0.015-0.279-0.144-0.548-0.14-0.856c0.006-0.518,0.124-1.08,0.14-1.563
	c0,0.01-0.163-0.034-0.14-0.144c0.2-1.005,0-2.851,0-4.266c-0.002-2.488,0.007-4.927,0-7.396c0.261-0.368,0.153-0.897,0.282-1.278
	c0.232-0.679,0.745-1.342,1.14-1.993c0.167-0.279,0.333-0.627,0.567-0.995c0.112-0.175,0.187-0.41,0.286-0.569
	c0.033-0.057,0.263-0.096,0.283-0.144c0.03-0.066-0.045-0.227,0-0.285c0.412-0.507,1.19-0.93,1.707-1.563
	c0.247-0.302,0.791-0.662,1.139-0.995c0.242-0.23,0.984-0.462,1.279-0.854c1.397-0.477,2.659-0.549,3.984-0.854
	c1.864,0.06,3.486,0.559,4.834,1.138c0.123,0.051,0.403,0.051,0.569,0.143c0.059,0.034,0.091,0.263,0.143,0.284
	c0.232,0.107,0.312,0.093,0.568,0.284C335.206,587.095,335.438,587.718,336.022,587.743"/>
<path fill="#FFFFFF" d="M439.375,584.182h16.892v7.667c0.162,0.635-0.568,0.373-0.853,0.566c-0.593-0.119-0.563,0.384-0.852,0.568
	v59.894c0.549,0.867,0.811,1.943,1.987,2.132c1.324,0.209,2.223-0.618,2.979-1.418c0.239-19.876,0.234-40.733,0-60.606
	c-0.38-0.705-1.737-0.439-2.271-0.994v-7.809h14.052v3.977c0,1.335,0.171,2.697-0.281,3.69c-0.807,0.276-1.153,0.229-1.848,0.28
	c-0.008,0.004,0.016-0.267,0-0.28c-0.036-0.037-0.181,0.304-0.283,0.28c0,0-0.576-0.113-0.853,0.146
	c-0.394,0.188-0.375,0.801-0.426,1.135c-0.192,1.213-0.189,2.958-0.143,4.542c0.199,6.354,0.117,12.824,0.143,19.16
	c0.006,0.87-0.117,1.795-0.143,2.696c-0.055,1.917,0.113,3.841,0.143,5.817c0.062,4.01-0.021,8.127,0.143,12.206
	c0.025,0.661,0.022,1.311,0,1.987c-0.017,0.476-0.007,0.938,0,1.418c0.003,0.328,0.003,0.688,0,0.995
	c-0.013,1.052-0.044,4.132,0,5.395c0.013,0.36,0.003,0.662,0,0.994c-0.007,0.482-0.017,0.915,0,1.418
	c0.018,0.607,0.021,1.256,0,1.847c-0.059,1.638-0.68,3.292-0.71,5.108c-0.44,0.041-0.188,0.482-0.285,0.708
	c-0.369,0.894-1.111,1.627-1.418,2.557c-0.548,0.199-0.727,0.798-1.134,1.136c-0.108,0.09-0.315,0.072-0.429,0.144
	c-0.096,0.06-0.194,0.223-0.282,0.28c-0.268,0.183-0.473,0.228-0.71,0.427c-0.181,0.292-0.797,0.149-0.852,0.571
	c-1.354,0.009-2.693,0.855-4.257,0.994c-0.649,0.05-1.472-0.118-2.272-0.145c-0.87-0.032-1.742,0.068-2.553,0
	c-0.41-0.036-0.849-0.198-1.278-0.283c-0.293-0.061-0.46-0.075-0.71-0.144c-0.764-0.211-2.21-0.507-2.84-0.854
	c-0.192-0.104-0.242-0.28-0.426-0.422c-0.499-0.394-1.179-0.802-1.562-1.42c0.002-0.337-0.244-0.418-0.143-0.853
	c-1.16-0.539-1.394-2.012-2.129-2.982c-0.959-4.61-0.71-10.081-0.71-15.472v-16.462c0-11.066,0.207-22.325-0.284-32.646
	c-0.994-0.757-2.771,0.129-3.831-0.567c-0.282-2.039-0.17-4.892,0-6.953C439.03,584.404,439.17,584.262,439.375,584.182"/>
<path fill="#FFFFFF" d="M492.707,631.962c-0.255,7.211-0.206,16.037,0,22.793c0.732,0.483,2.528,0.11,3.775,0.418
	c-0.135,2.104,0.172,4.494,0,6.713c-0.023,0.287-0.248,0.449-0.283,0.839c-0.021,0.263,0.23,0.636,0,0.836
	c-4.988,0.325-10.575,0.052-15.797,0.144c-0.541-0.439-1.603-0.358-2.099-0.839c-0.598-0.865-0.421-2.376-0.421-3.776
	c0-1.463-0.107-2.929,0.141-4.055c0.249-0.18,0.979-0.594,1.259-0.278c0.436-0.172,0.886-0.328,1.538-0.281
	c-0.201-2.691-0.206-5.403-0.138-8.108c0.064-2.736,0-5.442,0-8.25c0-7.47,0.138-15.206,0.138-22.792
	c0-7.68,0.103-15.201,0.14-22.229c-0.846-0.414-2.405-0.111-3.354-0.419c-0.455-1.059-0.279-2.676-0.279-4.193
	c0-1.488-0.194-3.033,0.279-4.057c2.457-0.224,5.985-0.14,9.926-0.14c3.922,0,7.726-0.363,10.628,0.279
	c0.269,0.06,0.43,0.212,0.698,0.279c0.753,0.188,1.294,0.351,1.957,0.698c0.063,0.033,0.087,0.254,0.14,0.278
	c0.247,0.118,0.768-0.001,0.842,0.421c0.717,0.4,1.167,1.068,2.095,1.26c0.215,0.718,0.862,1,1.26,1.535
	c0.508,0.427,0.784,1.079,1.259,1.54c-0.065,0.898,0.595,1.564,0.838,2.379c0.257,0.851,0.063,1.823,0.56,2.655
	c0.403,3.813,0.279,8.713,0.279,13.424c0,4.604,0.146,8.954-0.279,13.004c-0.891,1.485-0.987,3.763-2.098,5.03
	c-0.72,0.959-1.578,1.776-2.518,2.516c-1.267,0.553-2.85,0.784-4.193,1.26C496.725,631.043,493.915,630.702,492.707,631.962
	 M493.264,593.231c-0.253,2.299-0.139,4.892-0.139,7.411v7.553c0,5.09-0.01,10.127,0,14.679c1.375,0.347,2.768-0.238,3.777-0.7
	c0.252-6.896,0.139-15.333,0.139-22.511c0-2.407,0.343-4.932-1.117-6.432c-0.69-0.242-1.348-0.519-2.378-0.419
	C493.368,592.87,493.259,592.993,493.264,593.231"/>
<path fill="#FFFFFF" d="M530.011,631.962c-0.254,7.211-0.204,16.037,0,22.793c0.733,0.483,2.528,0.11,3.774,0.418
	c-0.131,2.104,0.173,4.494,0,6.713c-0.021,0.287-0.247,0.449-0.28,0.839c-0.021,0.263,0.231,0.636,0,0.836
	c-4.989,0.325-10.575,0.052-15.797,0.144c-0.542-0.439-1.603-0.358-2.1-0.839c-0.598-0.865-0.421-2.376-0.421-3.776
	c0-1.463-0.107-2.929,0.141-4.055c0.248-0.18,0.98-0.594,1.259-0.278c0.435-0.172,0.886-0.328,1.539-0.281
	c-0.202-2.691-0.208-5.403-0.138-8.108c0.063-2.736,0-5.442,0-8.25c0-7.47,0.138-15.206,0.138-22.792
	c0-7.68,0.103-15.201,0.14-22.229c-0.848-0.414-2.405-0.111-3.355-0.419c-0.453-1.059-0.279-2.676-0.279-4.193
	c0-1.488-0.193-3.033,0.279-4.057c2.459-0.224,5.988-0.14,9.926-0.14c3.922,0,7.727-0.363,10.628,0.279
	c0.27,0.06,0.431,0.212,0.7,0.279c0.751,0.188,1.293,0.351,1.957,0.698c0.061,0.033,0.087,0.254,0.14,0.278
	c0.244,0.118,0.768-0.001,0.839,0.421c0.721,0.4,1.168,1.068,2.098,1.26c0.215,0.718,0.862,1,1.259,1.535
	c0.509,0.427,0.783,1.079,1.26,1.54c-0.067,0.898,0.594,1.564,0.838,2.379c0.256,0.851,0.062,1.823,0.561,2.655
	c0.402,3.813,0.278,8.713,0.278,13.424c0,4.604,0.146,8.954-0.278,13.004c-0.892,1.485-0.988,3.763-2.1,5.03
	c-0.72,0.959-1.577,1.776-2.517,2.516c-1.268,0.553-2.853,0.784-4.194,1.26C534.029,631.043,531.221,630.702,530.011,631.962
	 M530.569,593.231c-0.255,2.299-0.141,4.892-0.141,7.411v7.553c0,5.09-0.009,10.127,0,14.679c1.374,0.347,2.77-0.238,3.775-0.7
	c0.254-6.896,0.14-15.333,0.14-22.511c0-2.407,0.344-4.932-1.118-6.432c-0.688-0.242-1.345-0.519-2.377-0.419
	C530.674,592.87,530.564,592.993,530.569,593.231"/>
<path fill="#FFFFFF" d="M553.73,584.211h13.778c1.439,0,2.922-0.163,4.217,0.278c0.323,2.396,0.052,5.39,0.142,8.016
	c-1.269,0.049-2.742-0.116-3.796,0.143c-0.641,1.042-0.545,2.312-0.563,3.516c-0.258,16.813,0,34.278,0,51.317
	c0,2.53-0.174,5.134,0.278,7.591c1.21,0.638,3.234,0.31,4.781,0.14c0.582-7.427,0.146-17.426,0.281-26.147
	c2.589-0.318,5.761-0.054,8.574-0.142c1.247,2.231,0.845,5.224,0.845,8.155c0,8.52,0.117,18.137-0.141,26.431
	c-9.141-0.049-18.15,0.035-27.132,0.144c-0.374-0.401-0.535-0.275-0.986-0.423c-0.229-0.477-0.467-0.795-0.564-1.407
	c-0.134-0.847,0.141-2.023,0.146-2.812c0.001-0.617-0.346-1.729,0-2.531c0.601-0.716,2.326,0.146,2.81-0.422
	c0.458-0.497,0.264-1.261,0.28-1.825c0.313-9.735,0-20.121,0-30.089v-24.042c0-2.558,0.034-5.101,0-7.452
	c-0.462-0.71-2.015-0.328-3.09-0.42c0.069-2.649-0.252-4.906-0.146-7.595C553.441,584.394,553.554,584.269,553.73,584.211"/>
<path fill="#FFFFFF" d="M588.77,592.568c-0.029-0.109-0.119-0.164-0.28-0.143c-0.317-2.558-0.061-5.686-0.143-8.478h16.813v7.913
	h-3.814c-0.396,0.413,0.13,0.699,0.283,0.99c1.14,3.038,1.555,6.098,2.657,9.186c0.828,2.299,1.162,6.364,1.813,8.685
	c0.02,0.063,0.267,0.346,0.284,0.427c0.199,0.895-0.144,1.523,0.566,1.836c0.5,0.01,0.552-0.433,0.704-0.851
	c0.155-0.424,0.321-0.854,0-0.985c0.418-0.457,0.172-1.158,0.282-1.695c0.035-0.171,0.261-0.302,0.283-0.423
	c0.033-0.199-0.15-0.314-0.143-0.427c0.01-0.053,0.268-0.305,0.283-0.424c0.004-0.018-0.029-0.193,0-0.424
	c0.033-0.231,0.124-0.468,0.144-0.563c0.953-4.552,3.224-10.839,4.285-15.188c-0.961-0.314-2.486-0.06-3.675-0.143v-7.913h10.598
	c1.301,0,2.555-0.204,3.391,0.283c0.326,2.36,0.052,5.318,0.141,7.913c-1.175,0.44-2.149,0.382-2.966,0.28
	c-1.427,6.505-3.021,13.894-4.379,20.345c-0.84,3.966-1.598,7.717-2.405,11.447c-0.466,2.157-1.005,4.204-1.127,6.357
	c-0.19,3.353-0.012,6.615-0.144,9.606c-0.139,3.188-0.097,3.341-0.139,5.649c-0.014,0.59,0.164,1.183,0.139,1.84
	c-0.04,1.016-0.565,2.91-0.139,4.376c-0.488,0.956-0.26,2.789-0.284,3.819c0.898,0.284,3.708,0.021,4.663,0.279
	c0.543,1.154,0.071,4.41,0.705,5.933c-0.396-0.022-0.407,0.349-0.424,0.709c-0.08,0.291-0.296,0.458-0.425,0.705
	c-3.058,0.451-6.414,0.305-9.184,0.283c-2.729-0.023-5.349-0.144-7.771-0.144c-1.191,0-2.504,0.234-3.534-0.421
	c-0.24-1.973-0.232-5.423,0.427-7.346c1.02-0.45,2.425-0.245,3.393-0.429c0.597-0.201,1.012-0.587,1.978-0.424v-19.354
	c0-2.157,0.233-4.397,0-6.499c-0.163-1.46-0.857-2.953-1.271-4.521c-0.405-1.527-0.741-3.173-1.135-4.663
	c-0.972-3.693-2.182-7.839-3.105-11.303c-0.214-0.804-0.353-1.587-0.565-2.401c-0.506-1.93-1.089-3.918-1.556-5.648
	c-0.744-2.771-1.287-5.513-2.117-8.056C590.495,592.505,589.703,592.841,588.77,592.568"/>
<path fill="#FFFFFF" d="M361.686,625.982c0-7.275,5.899-13.176,13.175-13.176c7.276,0,13.177,5.899,13.177,13.176
	s-5.899,13.176-13.177,13.176C367.585,639.158,361.686,633.26,361.686,625.982"/>
<path fill="#D51F26" d="M394.89,31.107h3.2c2.299,1.495,4.59,2.812,6.858,4.572c1.536,1.194,2.693,2.28,4.571,3.657
	c0.424,0.31,1.095,1.244,1.371,1.371c1.229,0.569,2.937,0.233,4.113,0.915c0.616,0.356,1.601,1.682,2.286,2.286
	c0.876,0.77,1.525,1.565,2.287,2.286c1.559,1.479,3.074,3.218,5.028,4.115c-0.085,0.388,0.179,0.433,0.457,0.457
	c-0.084,0.388,0.179,0.43,0.458,0.457c0.279,0.664,0.553-0.045,0,0c0.084-0.388-0.181-0.433-0.458-0.457
	c0.084-0.389-0.179-0.431-0.457-0.457c-3.073-3.748-9.227-8.383-6.4-15.088c4.497-0.357,6.943,3.673,9.602,5.944
	c0.396,0.339,0.993,0.606,1.37,0.914c1.968,1.604,4.655,4.31,6.858,6.401c2.675,2.539,5.474,4.841,8.229,7.315
	c2.603,2.338,4.874,5.464,8.686,6.4c0.514-1.402-2.502-4.729-0.912-7.314c2.011-0.7,3.422,1.263,4.573,2.286
	c1.339,1.193,2.476,2.933,3.655,4.114c1.942,1.942,3.932,3.669,5.945,5.943c0.664,0.752,1.469,1.268,1.828,1.829
	c0.508,0.798,0.361,2,0.913,2.743c0.952,1.282,1.993,2.07,3.199,3.2c2.633,2.461,6.748,4.699,10.059,7.315
	c0.376,0.297,0.535,1.105,0.916,1.372c0.44,0.309,0.987,0.128,1.371,0.457c1.329,1.147,1.608,2.021,2.742,3.658
	c0.114,0.165,0.85,0.312,0.914,0.458c0.105,0.236-0.14,0.701,0,0.914c0.111,0.171,0.848,0.307,0.917,0.457
	c1.839,4.084,3.824,8.979,3.199,16.459c-0.155,1.844-1.335,3.575-0.915,5.944c0.217,1.227,1.628,3.579,3.2,4.114
	c3.16,1.078,9.977-0.33,12.802-0.457c6.682-0.304,13.313,0.019,18.285,1.371c1.966,0.533,3.547,0.866,5.031,1.829
	c0.337,0.219,0.653,0.768,0.912,0.914c0.957,0.539,2.316,0.743,3.203,1.372c0.4,0.285,0.531,1.075,0.912,1.372
	c0.324,0.251,1.03,0.168,1.371,0.456c1.43,1.209,2.815,3.707,5.029,5.03c2.207,1.322,5.646,1.8,8.229,3.201
	c2.517,1.362,4.278,3.024,5.944,5.485c-5.662,1.305-11.035-0.965-16.001,0.458c-0.975,0.28-1.618,1.178-2.744,1.829
	c-1.013,0.584-2.452,0.782-3.199,1.371c-1.755,1.383-3.021,3.717-4.115,5.486c1.605,0.948,2.916,1.455,5.028,2.286
	c1.313,0.514,3.338,1.658,5.03,2.287c1.198,0.447,2.469,0.493,3.656,0.914c2.347,0.831,4.426,1.991,6.857,2.743
	c3.729,1.155,7.82,1.969,11.43,3.2c3.146,1.072,6.245,3.058,9.603,4.572c2.358,1.063,4.854,1.296,7.313,2.286
	c1.059,0.425,2.16,1.392,3.201,1.828c1.261,0.53,2.555,0.414,3.657,0.915c1.004,0.458,2.126,1.656,3.2,2.285
	c7.11,4.161,16.557,7.946,24.229,12.345c2.275,1.305,4.399,2.49,6.859,3.657c2.277,1.083,4.63,2.234,6.855,3.657
	c3.346,2.136,6.161,4.146,10.061,5.944c6.823,3.149,14.611,6.365,22.4,9.143c8.501,3.031,18.656,5.758,28.347,8.23
	c2.578,0.657,5.898,1.017,8.685,1.829c0.89,0.259,3.023,0.649,4.117,1.371c0.504,0.335,1.993,1.7,1.372,2.745
	c-11.411,0.835-20.955-3.995-31.547-5.488c10.308,5.446,21.882,8.663,33.375,13.259c1.915,0.769,3.523,1.658,5.485,2.286
	c1.904,0.611,4.011,0.813,5.943,1.829v1.372c-4.051,0.945-8.201-0.212-11.887-0.915c-3.811-0.726-7.587-1.625-10.974-2.744
	c-6.871-2.27-12.812-5.668-19.203-7.771c-0.601,0.997,1.038,1.16,1.372,1.371c0.66,0.42,1.628,0.989,2.286,1.372
	c8.21,4.768,17.854,9.562,26.976,14.173c1.489,0.754,3.188,1.263,4.111,2.743c-3.907,2.098-8.397,0.104-11.886-0.914
	c-3.772-1.102-7.716-2.189-10.973-3.657c-6.188-2.792-12.392-7.066-19.658-9.145c-0.411,1.039,1.159,1.831,2.286,2.744
	c0.637,0.516,1.108,0.855,1.829,1.371c0.464,0.334,1.369,0.592,1.829,0.915c1.134,0.795,2.098,1.968,3.198,2.743
	c0.439,0.309,1.003,0.115,1.372,0.458c2.284,2.125,6.095,4.782,9.144,6.858c2.258,1.537,5.14,2.87,5.487,5.943
	c-0.651-0.038-1.295-0.075-1.372,0.457h-0.914c-10.438-2.668-18.143-8.071-28.346-10.973c0.572,3.301,5.509,4.464,4.115,8.23
	c-3.703,0.909-7.623-0.147-9.602-0.914c-0.68-0.263-1.63-0.193-2.287-0.458c-1.084-0.438-2.111-1.405-3.199-1.828
	c-0.646-0.247-1.396-0.314-1.831-0.457c-2.034-0.673-6.04-2.645-7.313-1.372c-0.27,0.269-0.18,1.138-0.457,1.372
	c-0.963,0.812-1.358,0.493-2.743,0.915c-6.783,2.06-13.249-1.338-20.116-3.659c-0.72,0.881-0.484,1.549-0.915,2.287
	c-1.866,3.208-11.034,2.67-16.001,1.372c-3.117-0.816-5.609-2.673-7.317-3.2c-5.841,4.84-18.613,3.126-24.229-0.915
	c-2.896,1.094-4.82,2.038-7.314,2.286c-5.823,0.577-11.288-1.309-14.63-2.744c-1.93-0.824-2.872-0.577-5.488-0.457
	c-2.713,0.125-4.903-0.075-6.398-0.458c-0.633-0.162-1.691-0.273-2.287-0.457c-2.479-0.77-5.165-3.079-6.857-3.2
	c-1.816-0.129-3.774,1.358-5.484,1.372c-3.762,0.03-7.787-2.292-10.061-3.657c-1.504-0.905-2.597-2.219-4.113-2.744
	c-2.357-0.813-5.084-0.266-7.315-0.915c-0.022-0.006-0.661-0.339-0.915-0.457c-2.805-1.293-5.189-3.417-6.855-5.486
	c-0.839-1.038-0.822-1.471-1.829-1.829c-0.396-0.14-2.196,0.478-2.744,0.457c-4.447-0.153-5.82-2.533-7.772-4.572
	c-1.42-1.481-2.801-2.759-4.112-4.572h-5.486c-2.62-3.629-7.042-5.456-7.316-11.43c-2.043-0.709-4.315-0.196-5.942-1.372
	c-0.122-0.089,0.068-0.763,0-0.915c-0.066-0.151-0.803-0.283-0.913-0.457c-0.315-0.492-0.581-1.292-0.915-1.828
	c-0.844-1.364-1.533-2.509-1.829-3.659c-0.593-2.303-0.189-4.404-0.457-6.4c-1.031-1.474-3.423,0.795-4.113-0.457
	c-1.392-0.436-1.84-1.817-4.115-1.372c-1.229,8.502,1.102,23.094,3.658,31.546c0.963,3.189,3.415,7.664,0,8.687
	c-1.409,0.42-3.755-2.303-5.032-3.2c-2.144-1.509-3.883-2.136-5.026-3.658c-0.604-1.458,2.444-2.787,0-3.201
	c-0.952,0.191-1.241-0.695-2.286-0.914c-0.895-0.185-2.584,0.928-2.284-0.457c-1.291-0.343-1.104,1.333-1.373,1.828
	c-0.693,1.28-1.353,2.484-1.829,3.201c-0.858,1.295-1.334,2.021-3.199,2.286c-2.578,0.368-5.438-2.241-7.771-3.2
	c-1.715-0.702-3.361-1.75-4.116-2.744c-0.689-0.911-0.988-2.663-1.37-3.657c-0.594-1.543-0.873-2.556-1.371-3.657
	c-0.688-0.429-1.444,0.556-1.833,0.914c-2.224,2.072-3.626,4.37-7.312,4.572c-2.491,0.138-2.443-0.082-4.116-0.915
	c-0.582-0.289-1.672-0.468-2.284-0.914c-1.246-0.908-0.878-1.047-1.372-2.286c-0.312-0.774-2.323-1.035-2.742-1.372
	c-2.02-1.62-2.187-4.508-3.201-6.401c-2.857,1.77-6.979,2.756-10.516,1.829c-0.539-0.142-3.044-1.652-3.198-1.829
	c-0.341-0.387-0.069-1.041-0.458-1.372c-1.505-1.278-2.892-1.576-3.657-3.2c-0.452-0.958-0.993-4.411-0.915-5.029
	c0.212-1.664,2.439-2.663,2.287-4.572c0.53,0.074,0.813-0.101,0.914-0.458h0.914c-0.114-0.575-0.909-0.461-0.914,0
	c-0.531-0.074-0.816,0.102-0.914,0.458c-4.485,1.097-11.882,3.636-17.373,1.829c-0.85-0.279-1.943-1.572-2.286-1.829
	c-0.424-0.316-1.005-0.134-1.373-0.458c-1.296-1.152-2.139-2.403-2.285-3.657c-0.36-3.057,0.787-3.562,2.285-5.486
	c0.532,0.074,0.813-0.102,0.916-0.458c-0.532-0.074-0.814,0.102-0.916,0.458c-8.657,1.269-17.485-0.593-17.372-6.401
	c0.075-3.884,4.886-6.093,7.771-7.315c-2.538-0.991-6.112,1.154-9.601,0.915c-2.331-0.16-4.734-1.869-6.856-2.743
	c-0.652-0.269-1.608,0.196-2.287,0c-0.727-0.209-0.677-0.846-1.371-1.372c-2.65-1.998-2.654-3.483-0.458-5.486
	c0.478-0.436,2.738-0.466,1.829-1.828c-5.271-1.893-10.526-3.799-11.887-9.602c2.729-1.689,6.322-2.514,10.059-3.199
	c-0.018-0.976-1.156-1.519-1.829-1.83c-0.869-0.401-2.33-0.607-3.201-0.915c-1.916-0.677-4.503-0.862-5.942-1.829
	c-1.007-0.672-1.603-2.305-2.286-3.199c-0.919-1.205-2.446-1.965-2.287-3.657c1.97-1.688,6.769-0.545,9.601-1.373
	c-0.518-2.225-4.802-0.683-5.028-3.201c1.138-0.538,3.563,0.215,3.657-1.371c-4.404-0.32-9.43-0.019-9.145-5.029
	c4.226-1.29,9.067,0.241,13.715,0c0.377-1.124-1.086-1.614-1.828-2.287c-2.777-2.521-6.521-4.185-5.944-9.6
	c6.153-0.365,9.668,1.916,15.089,2.285c0.907-3.052-4.029-4.195-3.657-8.229c10.34,4.87,21.958,12.108,34.747,17.831
	c9.674,4.329,21.415,8.145,32.001,10.973c0.899,0.24,1.478,0.685,2.287,0.914c3.676,1.042,5.472,1.244,9.601,1.372
	c1.101,0.035,3.043,0.551,3.657,0.458c0.699-0.107,0.765-1.081,1.373-1.372c0.87-0.419,1.927-0.288,2.742-0.457
	c1.458-0.304,3.027,0.265,4.571,0c0.771-0.133,1.477-1.088,2.286-1.371c1.468-0.513,2.33-0.372,3.657-0.457
	c0.752-1.677-2.342-3.01-3.201-4.115c-0.852-1.096-0.077-1.33-1.372-1.829c-1.176-0.453-3.761-0.236-5.483-0.458
	c-1.911-0.245-3.52,0-5.029-0.914c-0.301-2.4,0.257-5.252-0.916-5.029c-4.976-0.579-8.325,1.695-11.886,0.915
	c-2.342-0.512-3.573-2.617-5.029-4.115c-0.485-0.5-0.933-0.278-1.371-0.914c-0.143-0.204,0.104-0.684,0-0.915
	c-0.548-1.213-2.597-1.661-3.201-2.743c1.536-2.228-1.704-3.002-1.37-5.487c-20.579-4.148-41.5-6.348-64.465-7.315
	c-6.443-0.272-12.639-0.287-19.202,0c-54.744,2.409-100.733,13.977-139.901,31.547c-1.512,0.678-2.998,1.574-4.57,2.287
	c-6.351,2.872-12.479,5.973-18.29,9.143c-3.008,1.642-6.153,2.905-9.143,4.572c-0.176,0.1-0.272,0.775-0.458,0.914
	c-0.354,0.266-1.053,0.26-1.37,0.458c-1.728,1.076-4.02,2.35-5.487,3.199c-0.438,0.255-0.575,0.709-0.916,0.915
	c-1.418,0.857-3.105,1.383-4.572,2.286c-0.192,0.118-0.253,0.762-0.456,0.914c-0.353,0.267-1.052,0.26-1.371,0.458
	c-4.96,3.089-10.275,6.517-14.632,9.6c-0.211,0.151-0.233,0.748-0.455,0.916c-0.386,0.29-1.025,0.207-1.374,0.457
	c-1.04,0.752-2.103,1.861-2.743,2.287c-0.903,0.601-1.588,0.939-2.284,1.372c-1.917,1.19-4.221,3.395-5.488,4.571
	c-0.356,0.333-0.968,0.143-1.369,0.457c-0.61,0.475-1.189,1.32-1.829,1.829c-0.636,0.505-1.204,0.859-1.83,1.373
	c-0.688,0.562-1.186,1.3-1.828,1.828c-1.249,1.025-2.896,1.756-4.115,2.743c-0.665,0.539-0.819,1.366-1.373,1.829
	c-0.341,0.286-1.048,0.209-1.37,0.457c-0.976,0.745-1.494,2.081-2.288,2.744c-0.341,0.288-1.048,0.212-1.37,0.457
	c-1.044,0.796-1.432,2.004-2.286,2.743c-0.631,0.543-1.614,0.754-2.289,1.372c-4.842,4.433-9.157,9.159-13.713,13.715
	c-4.009,4.008-8.493,8.14-11.889,11.887c-0.591,0.653-0.781,1.613-1.369,2.285c-0.477,0.542-1.345,0.839-1.83,1.372
	c-0.595,0.657-0.784,1.603-1.373,2.287c-0.464,0.538-1.365,0.833-1.827,1.371c-0.585,0.675-0.805,1.618-1.375,2.286
	c-4.299,5.057-8.49,9.983-12.344,15.087c-0.887,1.176-1.769,2.884-2.743,4.115c-1.032,1.311-1.909,3.494-4.113,3.2
	c1.354-3.997,3.12-8.092,5.027-11.886c4.9-9.744,10.294-19.212,15.547-27.889c0.634-1.05,1.481-2.838,1.827-3.201
	c0.367-0.382,0.543-0.982,0.914-1.371c1-1.044,1.604-2.116,2.289-3.201c1.209-1.925,2.198-3.566,3.198-5.03
	c4.194-6.127,8.616-12.402,12.803-17.83c0.997-1.294,2.412-3.292,3.2-4.115c0.655-0.681,0.895-1.32,1.37-1.828
	c1.273-1.36,2.166-2.378,3.203-3.657c2.636-3.262,5.223-6.254,7.772-9.144c4.209-4.774,8.466-8.924,12.8-13.258
	c3.92-3.919,8.015-8.661,11.888-11.888c1.612-1.343,3.275-3.034,4.572-4.114c2.033-1.696,3.454-3.28,5.484-5.029
	c0.764-0.658,1.521-1.174,2.288-1.829c1.25-1.069,2.672-1.978,3.657-2.744c0.385-0.301,0.527-1.055,0.915-1.371
	c0.895-0.733,1.851-1.117,2.743-1.829c2.016-1.616,4.361-3.283,5.944-4.572c1.715-1.398,3.58-2.666,5.029-3.657
	c1.303-0.892,2.544-2.41,3.657-3.2c0.813-0.582,1.93-0.789,2.744-1.372c0.881-0.634,1.434-1.691,2.285-2.286
	c0.813-0.568,1.922-0.838,2.743-1.371c0.943-0.613,1.875-1.25,2.743-1.829c6.881-4.589,13.833-9.038,21.031-13.259
	c7.343-4.307,15.068-8.033,22.859-11.887c11.596-5.734,24.062-10.812,36.576-15.088c4.291-1.467,8.427-3.235,12.802-4.571
	c38.428-11.735,86.947-19.26,137.611-15.544c1.783,0.131,4.254,0.074,5.489,0.457c0.982,0.307,1.387,1.622,1.828,1.829
	c0.353,0.167,1.044-0.208,1.371,0c0.472,0.299,0.882,1.059,1.372,1.371c0.637,0.408,1.33,0.604,1.827,0.915
	c2.253,1.411,5.193,3.781,7.313,4.572c0.285,0.665,0.555-0.046,0,0c-1.751-2.081-4.801-4.706-3.197-8.687
	c2.564-0.164,4.844,1.65,7.314,2.286c1.317,0.339,2.805,0.033,4.114,0.457c1.316,0.427,1.887,1.297,3.197,1.829
	c-0.081,0.389,0.182,0.43,0.46,0.458c0.281,0.664,0.553-0.046,0,0c0.083-0.39-0.18-0.433-0.46-0.458
	C394.989,36.687,393.154,33.759,394.89,31.107"/>
<g>
	<path fill="#D51F26" d="M658.335,684.841v-17.835h-6.369v-3.633h17.061v3.633h-6.356v17.835H658.335z"/>
	<path fill="#D51F26" d="M671.765,684.841v-21.468h6.486l3.896,14.644l3.851-14.644h6.503v21.468h-4.027v-16.898l-4.262,16.898
		h-4.174l-4.245-16.898v16.898H671.765z"/>
</g>
</svg>
